<?xml version="1.0" encoding="UTF-8"?>
<svg version="1.1" xmlns="http://www.w3.org/2000/svg" width="1024" height="1024">
<path d="M0 0 C0.90990181 -0.00250352 1.81980361 -0.00500704 2.7572782 -0.00758642 C3.7653988 -0.00524525 4.7735194 -0.00290409 5.8121891 -0.00049198 C6.88094977 -0.00194542 7.94971043 -0.00339886 9.05085778 -0.00489634 C12.67449131 -0.00858001 16.29808339 -0.00505902 19.92171669 -0.00163448 C22.52889147 -0.00278536 25.13606608 -0.00437266 27.74324036 -0.00636172 C33.43358214 -0.00998412 39.12391444 -0.0098573 44.81425667 -0.00731456 C53.27576965 -0.00354374 61.73727459 -0.00545973 70.19878751 -0.00852287 C85.30798568 -0.01379859 100.41717964 -0.01332826 115.52637821 -0.01044396 C128.74838847 -0.00793219 141.97039717 -0.00726993 155.19240761 -0.0084666 C156.06815104 -0.00854299 156.94389448 -0.00861937 157.8461756 -0.00869807 C161.40076119 -0.00900939 164.95534677 -0.00932779 168.50993236 -0.00965784 C201.88075329 -0.01271947 235.25157152 -0.0099392 268.62239203 -0.00456094 C298.29524779 0.00018496 327.96809925 -0.00023966 357.64095497 -0.00502193 C390.94924994 -0.01037212 424.25754252 -0.01250237 457.56583786 -0.00940967 C461.1140906 -0.00908893 464.66234334 -0.00877609 468.21059608 -0.0084666 C469.08431934 -0.00838752 469.9580426 -0.00830845 470.85824232 -0.00822697 C484.07461187 -0.00708766 497.2909797 -0.00842319 510.50734901 -0.01094615 C525.52917902 -0.01379941 540.55100414 -0.01310344 555.57283354 -0.00766541 C563.98854832 -0.00471967 572.40425251 -0.00455102 580.81996702 -0.00831159 C587.08812574 -0.01080452 593.35627183 -0.0081191 599.62442899 -0.00333701 C602.17216705 -0.00221236 604.71990652 -0.00280504 607.26764369 -0.0052128 C610.70872147 -0.0082174 614.14974 -0.0051716 617.59081459 -0.00049198 C618.59893519 -0.00283314 619.60705578 -0.00517431 620.64572549 -0.00758642 C621.5556273 -0.0050829 622.4655291 -0.00257938 623.40300369 0 C624.19088229 0.00006776 624.97876088 0.00013552 625.79051459 0.00020533 C627.70150185 0.12534916 627.70150185 0.12534916 629.70150185 1.12534916 C631.37844126 1.31839326 633.05603487 1.50717718 634.73624611 1.66929448 C644.29495267 2.62046703 652.95974606 5.00273975 662.01400185 8.12534916 C663.08560555 8.48733906 663.08560555 8.48733906 664.1788578 8.85664189 C675.31757074 12.63253732 685.747526 17.07401227 695.89583778 23.07212651 C698.44810442 24.56083368 701.0769799 25.89422431 703.70150185 27.25034916 C709.40085522 30.38234676 714.53899377 34.18614777 719.70150185 38.12534916 C720.47365028 38.70284916 721.24579872 39.28034916 722.0413456 39.87534916 C736.49306832 50.84748311 749.03332142 63.49784404 759.70150185 78.12534916 C760.32798622 78.96839604 760.9544706 79.81144291 761.59993935 80.68003666 C771.35673693 94.1453003 781.00767861 110.56687624 785.0335331 126.85191166 C785.70089036 129.32329165 785.70089036 129.32329165 787.1507206 132.29331791 C789.06272045 136.66493774 789.86696251 141.13447825 790.70150185 145.81284916 C790.92966591 147.01651127 790.92966591 147.01651127 791.16243935 148.24448979 C791.4906191 150.02123345 791.80345331 151.80085757 792.10357213 153.58255583 C792.41501946 155.42791237 792.72831859 157.27304571 793.06264576 159.11439455 C795.63603951 173.36786139 796.12333673 187.23142479 796.06899452 201.68978703 C796.0710231 204.11491755 796.0743674 206.54004725 796.0789001 208.96517438 C796.08570231 214.20231398 796.08334585 219.43936337 796.07257652 224.67649281 C796.05660686 232.46437311 796.05807783 240.25218499 796.06286881 248.04007675 C796.07042924 261.14920536 796.0639912 274.25829163 796.04925728 287.36741269 C796.0346906 300.34339491 796.02596851 313.31935857 796.0250721 326.29534924 C796.02498046 327.50905594 796.02498046 327.50905594 796.02488696 328.74728196 C796.02465743 332.03222065 796.02447026 335.31715933 796.02433883 338.60209802 C796.02312931 368.49682354 796.0074647 398.39152321 795.98275185 428.28623784 C795.95944755 456.48317998 795.94528289 484.68010644 795.94173622 512.87705815 C795.94156895 514.18086778 795.94156895 514.18086778 795.9413983 515.51101699 C795.94094942 519.0154549 795.94050745 522.51989282 795.94006587 526.02433073 C795.93984549 527.7708924 795.93962419 529.51745406 795.93940199 531.26401572 C795.93918063 533.00639458 795.93896186 534.74877344 795.93874569 536.49115229 C795.93522865 564.2531128 795.92376934 592.01507038 795.91093935 619.77702795 C795.90722427 627.8964889 795.90395844 636.01594965 795.90169048 644.13541114 C795.89687796 661.20214367 795.88976972 678.26886683 795.87354282 695.33559286 C795.86690596 702.39134717 795.86174716 709.44709395 795.86108208 716.50285161 C795.86047068 722.96380156 795.85486958 729.4247346 795.84576258 735.8856783 C795.84326098 738.22042299 795.84241853 740.55517018 795.84342137 742.889916 C795.85413923 773.82007439 795.85413923 773.82007439 793.70150185 778.12534916 C793.46040339 779.61335894 793.26257269 781.10851938 793.0882206 782.60581791 C787.38893603 829.20366411 764.64030011 872.29974085 728.6272831 902.88706791 C727.42248011 903.79916389 726.19921487 904.68735034 724.95931435 905.55113041 C723.07958237 906.86173938 721.26202797 908.21292721 719.44368935 909.60581791 C710.61954724 916.31814918 701.53795149 922.01645498 691.70150185 927.12534916 C690.69345497 927.65644291 689.6854081 928.18753666 688.64681435 928.73472416 C673.06646429 936.42158122 655.86878328 941.66852685 638.70150185 944.12534916 C637.49143974 944.3048914 636.28137764 944.48443364 635.03464699 944.66941655 C622.05413104 946.42830361 609.12554593 946.34125611 596.04865646 946.24752629 C589.21850937 946.19880337 582.38820821 946.18711656 575.55792177 946.17065346 C573.02460913 946.16431233 570.49130115 946.15685496 567.9579916 946.14938939 C548.20213825 946.09633934 528.44711242 946.20473661 508.691576 946.3089658 C498.2803455 946.36388606 487.8690904 946.4138396 477.4578371 946.46421778 C475.0276338 946.4759854 472.59743068 946.48779126 470.16722775 946.49963439 C386.41132958 946.90763196 302.65467468 947.19401993 172.23529339 947.34995854 C171.38730595 947.3505836 170.53931852 947.35120866 169.66563449 947.35185266 C168.81852656 947.35247701 167.97141862 947.35310136 167.09864074 947.35374463 C166.25245261 947.35436972 165.40626449 947.35499482 164.5344343 947.35563886 C162.82845209 947.35689656 161.12246988 947.35814319 159.41648766 947.3593787 C146.68783779 947.3687718 133.95921842 947.38650692 121.2305851 947.40879643 C106.68693959 947.43421819 92.14332891 947.44878486 77.59966022 947.4490875 C70.12664043 947.44950072 62.65369749 947.45451643 55.18069839 947.47296727 C48.28998911 947.48997421 41.3994236 947.49165294 34.5086993 947.48293412 C32.01734748 947.48218998 29.52598768 947.48646453 27.03465569 947.49643242 C13.66796742 947.5468106 0.88815659 947.03632335 -12.25411582 944.50245345 C-15.7132139 943.86439242 -19.19273948 943.38030497 -22.67349815 942.87534916 C-54.84867211 937.4234633 -83.84666091 920.03752008 -108.29849815 899.12534916 C-109.54759972 898.08894291 -109.54759972 898.08894291 -110.82193565 897.03159916 C-114.74123595 893.72797439 -118.14805036 890.18886005 -121.4586544 886.27769291 C-123.47332411 883.92082878 -125.57033722 881.65346976 -127.67349815 879.37534916 C-152.29849815 852.06092937 -152.29849815 852.06092937 -152.29849815 840.12534916 C-152.95849815 840.12534916 -153.61849815 840.12534916 -154.29849815 840.12534916 C-156.01211294 836.14392927 -157.66636756 832.14083758 -159.29849815 828.12534916 C-159.92691612 826.60554448 -159.92691612 826.60554448 -160.5680294 825.05503666 C-164.59792891 814.64126462 -166.65055716 803.85855675 -168.74918175 792.92027104 C-169.09477088 791.16191354 -169.45957464 789.4071158 -169.85172081 787.65855229 C-173.12669175 772.84104758 -172.4433329 757.45782197 -172.43221092 742.37423527 C-172.43408117 739.96411047 -172.43638273 737.55398597 -172.43907624 735.14386195 C-172.44390372 729.92073231 -172.44565209 724.69761117 -172.44462013 719.47447979 C-172.44308924 711.70687651 -172.44727013 703.9392834 -172.45249476 696.1716821 C-172.46214603 681.48776887 -172.46497817 666.80385916 -172.46555182 652.11994313 C-172.46601207 640.7760624 -172.46807413 629.43218302 -172.47125244 618.08830273 C-172.47215004 614.81817132 -172.47303986 611.54803991 -172.47392732 608.2779085 C-172.47414837 607.46484847 -172.47436942 606.65178844 -172.47459716 605.81409022 C-172.48074806 582.95605357 -172.48469806 560.09801738 -172.48425388 537.23997986 C-172.4842383 536.37886042 -172.48422273 535.51774098 -172.48420668 534.63052701 C-172.48412357 530.26642447 -172.48402453 525.90232193 -172.48392197 521.53821938 C-172.48390202 520.67155758 -172.48388208 519.80489578 -172.48386153 518.9119715 C-172.48382109 517.15937109 -172.48377929 515.40677069 -172.48373614 513.65417029 C-172.48312359 486.39594137 -172.49062745 459.13772491 -172.5043087 431.87949955 C-172.51968838 401.22503222 -172.52827379 370.57057307 -172.52734548 339.91610163 C-172.52727085 336.64376974 -172.52722214 333.37143785 -172.52719116 330.09910595 C-172.52717951 329.29342981 -172.52716785 328.48775367 -172.52715585 327.6576631 C-172.52712515 314.72487702 -172.53349516 301.7921018 -172.54212343 288.85931894 C-172.55062399 275.8483296 -172.5515711 262.83735605 -172.54501411 249.82636546 C-172.54133445 242.10998891 -172.54310311 234.3936605 -172.55295645 226.6772891 C-172.55971059 220.89646608 -172.55586022 215.11568702 -172.54808322 209.33486707 C-172.54655503 207.01056628 -172.54833845 204.68626018 -172.5539433 202.36196565 C-172.59596099 183.68688099 -172.09390564 165.26646617 -167.29849815 147.12534916 C-167.0458419 145.94714604 -166.79318565 144.76894291 -166.53287315 143.55503666 C-159.43119086 111.59746634 -141.62512017 82.71648783 -119.29849815 59.12534916 C-118.58049034 58.36609135 -117.86248253 57.60683354 -117.1227169 56.82456791 C-111.55912864 51.10286701 -105.56908963 46.05358348 -99.29849815 41.12534916 C-98.6436544 40.60327885 -97.98881065 40.08120854 -97.31412315 39.54331791 C-93.09174385 36.2682673 -88.65539458 33.34123441 -84.17349815 30.43784916 C-83.58721642 30.0569312 -83.00093468 29.67601323 -82.39688683 29.28355229 C-78.79654547 26.98047114 -75.14753529 24.97801904 -71.29849815 23.12534916 C-70.3549044 22.65355229 -69.41131065 22.18175541 -68.43912315 21.69566166 C-66.41464158 20.68342087 -64.3884525 19.67459121 -62.36099815 18.66831791 C-60.5146105 17.73805883 -58.67770791 16.78809293 -56.86099815 15.80113041 C-49.96729798 12.10974029 -42.727977 9.91114258 -35.26187706 7.71616948 C-33.4558467 7.17269851 -31.66338549 6.58466197 -29.8727169 5.99253666 C-22.98041002 3.72034758 -16.30814197 2.37788742 -9.0992794 1.51988041 C-5.76851019 1.05069256 -3.43203879 0.00029516 0 0 Z " fill="#AB2864" transform="translate(200.29849815368652,-0.12534916400909424)"/>
<path d="M0 0 C1.80610107 -0.00761181 1.80610107 -0.00761181 3.64868903 -0.0153774 C4.962877 -0.01587516 6.27706497 -0.01637292 7.63107681 -0.01688576 C9.04806076 -0.02090385 10.46504357 -0.02534264 11.882025 -0.03016531 C15.77130336 -0.04209738 19.66056933 -0.04777138 23.54986238 -0.05234647 C27.74631464 -0.0583151 31.94275218 -0.0699215 36.13919449 -0.08063698 C46.26956203 -0.10512796 56.39993442 -0.11978112 66.53032243 -0.13269705 C69.39207991 -0.1364107 72.25383691 -0.14038377 75.11559391 -0.14444971 C92.89306721 -0.16968253 110.67054131 -0.19173185 128.44802856 -0.20417786 C132.56310148 -0.20710745 136.67817437 -0.21006914 140.79324722 -0.21308327 C141.81600259 -0.21382932 142.83875796 -0.21457537 143.89250591 -0.21534403 C160.46559508 -0.22800147 177.03857706 -0.26123237 193.6116161 -0.3028851 C210.63210184 -0.34531146 227.65253268 -0.36887349 244.67307115 -0.37409842 C254.22744209 -0.37751118 263.78164534 -0.38925104 273.3359642 -0.42220116 C281.47127676 -0.45021209 289.60638722 -0.46119627 297.74174425 -0.4500057 C301.89093232 -0.44482221 306.03969722 -0.44768553 310.1888237 -0.47247124 C313.99134764 -0.49499657 317.79314522 -0.49419912 321.59568217 -0.47526737 C323.61411611 -0.47115326 325.63255468 -0.49158846 327.65087867 -0.51305425 C336.88658157 -0.43265949 343.35980972 1.53475913 350.62552261 7.27763939 C351.63038712 8.32178001 351.63038712 8.32178001 352.65555191 9.38701439 C353.79153824 10.54717064 353.79153824 10.54717064 354.95047379 11.73076439 C355.70264175 12.52482689 356.45480972 13.31888939 357.22977066 14.13701439 C358.00127457 14.93107689 358.77277847 15.72513939 359.56766129 16.54326439 C361.05114978 18.07132121 362.5301427 19.60375931 364.00394058 21.14116478 C367.77693111 25.07687966 371.66301067 28.85186786 375.67557144 32.53960228 C386.99451106 42.95333306 397.78679399 53.89955776 408.58914566 64.84404564 C410.92475578 67.14438648 413.31379912 69.37125203 415.72610855 71.59038353 C423.49280064 78.73899769 430.98764553 86.13066499 438.39432144 93.65117455 C443.19105315 98.50326764 443.19105315 98.50326764 448.33133316 102.98076439 C453.28356906 107.11012121 455.12292594 111.77070302 455.91727066 118.13701439 C456.0082392 120.54572408 456.04807139 122.95662478 456.05149174 125.36704922 C456.05384397 126.07581773 456.0561962 126.78458624 456.05861971 127.51483259 C456.06527682 129.88989037 456.06485248 132.26489303 456.06444168 134.63995934 C456.06774235 136.36004006 456.07146834 138.08012001 456.07558316 139.80019897 C456.08558807 144.52740392 456.08931752 149.25459618 456.09197247 153.98181021 C456.09587995 159.08016601 456.10545792 164.1785118 456.11418533 169.27686119 C456.13393625 181.58895138 456.1440138 193.90104238 456.15291312 206.21314445 C456.1572979 212.01281548 456.16266419 217.8124856 456.16790199 223.61215591 C456.18491221 242.89394917 456.19940641 262.17574186 456.20665073 281.45754147 C456.20856059 286.45982997 456.21048093 291.46211848 456.21243668 296.46440697 C456.21292042 297.7076809 456.21340416 298.95095483 456.21390256 300.23190372 C456.22220302 320.3724648 456.24754117 340.51296649 456.28001735 360.65350164 C456.3130959 381.33637252 456.33110018 402.01921323 456.33429497 422.70211071 C456.33645923 434.31278444 456.34519571 445.92337154 456.37075615 457.53401947 C456.39247389 467.42189129 456.4005082 477.30965543 456.39078937 487.1975484 C456.38624795 492.24017333 456.3881219 497.28257612 456.40755081 502.32517052 C456.42520618 506.94747755 456.42416549 511.56940077 456.40865352 516.19171201 C456.40628107 517.85797566 456.41058204 519.52426605 456.42248217 521.19048888 C456.52848786 537.02216975 453.6085776 549.87864743 442.72977066 561.82451439 C434.26591677 569.87641079 423.81446142 573.38579102 412.30502796 573.38869667 C411.57924639 573.39160355 410.85346481 573.39451043 410.10568985 573.3975054 C407.68477042 573.40477775 405.26410664 573.39787506 402.84318924 573.39098167 C401.08553276 573.3932872 399.32787725 573.39646434 397.57022375 573.40043616 C392.74857734 573.40878021 387.92701017 573.40466063 383.10536349 573.39846373 C377.90214225 573.39393863 372.69893463 573.40092331 367.49571609 573.40642357 C357.30557812 573.41531877 347.1154696 573.41339493 336.92533047 573.40759829 C328.64327269 573.40308206 320.36122316 573.40246873 312.07916451 573.40464592 C310.90054304 573.40495239 309.72192158 573.40525885 308.50758431 573.4055746 C306.11324617 573.40621405 303.71890802 573.40686248 301.32456987 573.40751979 C278.87022529 573.41322352 256.41589703 573.40666464 233.96155512 573.39591905 C214.69556475 573.38698467 195.42959848 573.38853458 176.16360855 573.39775658 C153.79131611 573.40846044 131.41903798 573.41267297 109.04674333 573.40653205 C106.66089308 573.40589495 104.27504283 573.40526621 101.88919258 573.40464592 C100.12836559 573.40418309 100.12836559 573.40418309 98.33196633 573.40371092 C90.06056813 573.40198424 81.78917901 573.40489852 73.51778221 573.40960503 C63.43662538 573.41521519 53.35549969 573.41369457 43.27434642 573.40304354 C38.13100665 573.39778851 32.9877188 573.39572725 27.84437943 573.40234184 C23.13486503 573.40830689 18.42545063 573.40501693 13.7159453 573.39438674 C12.01347936 573.39215507 10.31100495 573.39328377 8.60854448 573.39813831 C-7.9511004 573.44173083 -20.45896091 571.26241199 -32.88741684 559.45732689 C-43.94466203 547.77048767 -43.51982263 534.03338209 -43.47040939 518.88142967 C-43.47458462 516.80244912 -43.48006317 514.72347085 -43.4867292 512.6444968 C-43.50117767 506.94381892 -43.49694089 501.24328569 -43.48956239 495.54259992 C-43.48483158 489.38978231 -43.49733982 483.23699603 -43.5075798 477.08418846 C-43.52378132 465.73122657 -43.52621283 454.37832285 -43.52127481 443.02535606 C-43.51671456 432.53548908 -43.51732065 422.04563921 -43.52311516 411.55577278 C-43.52387203 410.14772986 -43.52462801 408.73968694 -43.5253831 407.33164402 C-43.52652832 405.20975041 -43.5276782 403.0878568 -43.52884235 400.96596319 C-43.53954465 381.2430164 -43.54427537 361.52007531 -43.53637218 341.79712677 C-43.53607501 341.05392798 -43.53577784 340.31072919 -43.53547166 339.54500922 C-43.53302282 333.5100271 -43.53041118 327.47504505 -43.52778753 321.44006301 C-43.51768579 297.90168246 -43.52604019 274.36337326 -43.54928207 250.82500267 C-43.57536435 224.36731937 -43.58820003 197.90967901 -43.58109432 171.45198238 C-43.58037828 168.62995077 -43.57970389 165.80791915 -43.57905388 162.98588753 C-43.57888407 162.29105377 -43.57871426 161.59622 -43.57853931 160.88033067 C-43.57623806 150.39982668 -43.58420498 139.91936261 -43.59734535 129.43886757 C-43.61226603 117.51732291 -43.61271321 105.59587497 -43.59527444 93.67432417 C-43.58675557 87.5928553 -43.58463683 81.51156483 -43.59992599 75.43010521 C-43.61375617 69.85998639 -43.60903102 64.29019911 -43.58968676 58.72009955 C-43.58592137 56.70808619 -43.5888642 54.69604637 -43.59929841 52.68405654 C-43.6789275 36.15013792 -41.83624432 24.31459524 -30.01632309 11.98076439 C-21.40304997 3.72188354 -11.87844168 0.02668913 0 0 Z " fill="#AD235D" transform="translate(300.0827293395996,110.86298561096191)"/>
<path d="M0 0 C1.80610107 -0.00761181 1.80610107 -0.00761181 3.64868903 -0.0153774 C4.962877 -0.01587516 6.27706497 -0.01637292 7.63107681 -0.01688576 C9.04806076 -0.02090385 10.46504357 -0.02534264 11.882025 -0.03016531 C15.77130336 -0.04209738 19.66056933 -0.04777138 23.54986238 -0.05234647 C27.74631464 -0.0583151 31.94275218 -0.0699215 36.13919449 -0.08063698 C46.26956203 -0.10512796 56.39993442 -0.11978112 66.53032243 -0.13269705 C69.39207991 -0.1364107 72.25383691 -0.14038377 75.11559391 -0.14444971 C92.89306721 -0.16968253 110.67054131 -0.19173185 128.44802856 -0.20417786 C132.56310148 -0.20710745 136.67817437 -0.21006914 140.79324722 -0.21308327 C141.81600259 -0.21382932 142.83875796 -0.21457537 143.89250591 -0.21534403 C160.46559508 -0.22800147 177.03857706 -0.26123237 193.6116161 -0.3028851 C210.63210184 -0.34531146 227.65253268 -0.36887349 244.67307115 -0.37409842 C254.22744209 -0.37751118 263.78164534 -0.38925104 273.3359642 -0.42220116 C281.47127676 -0.45021209 289.60638722 -0.46119627 297.74174425 -0.4500057 C301.89093232 -0.44482221 306.03969722 -0.44768553 310.1888237 -0.47247124 C313.99134764 -0.49499657 317.79314522 -0.49419912 321.59568217 -0.47526737 C323.61411611 -0.47115326 325.63255468 -0.49158846 327.65087867 -0.51305425 C336.88658157 -0.43265949 343.35980972 1.53475913 350.62552261 7.27763939 C351.63038712 8.32178001 351.63038712 8.32178001 352.65555191 9.38701439 C353.79153824 10.54717064 353.79153824 10.54717064 354.95047379 11.73076439 C355.70264175 12.52482689 356.45480972 13.31888939 357.22977066 14.13701439 C358.00127457 14.93107689 358.77277847 15.72513939 359.56766129 16.54326439 C361.05114978 18.07132121 362.5301427 19.60375931 364.00394058 21.14116478 C367.77693111 25.07687966 371.66301067 28.85186786 375.67557144 32.53960228 C386.99451106 42.95333306 397.78679399 53.89955776 408.58914566 64.84404564 C410.92475578 67.14438648 413.31379912 69.37125203 415.72610855 71.59038353 C423.49280064 78.73899769 430.98764553 86.13066499 438.39432144 93.65117455 C443.19105315 98.50326764 443.19105315 98.50326764 448.33133316 102.98076439 C453.28356906 107.11012121 455.12292594 111.77070302 455.91727066 118.13701439 C456.0082392 120.54572408 456.04807139 122.95662478 456.05149174 125.36704922 C456.05384397 126.07581773 456.0561962 126.78458624 456.05861971 127.51483259 C456.06527682 129.88989037 456.06485248 132.26489303 456.06444168 134.63995934 C456.06774235 136.36004006 456.07146834 138.08012001 456.07558316 139.80019897 C456.08558807 144.52740392 456.08931752 149.25459618 456.09197247 153.98181021 C456.09587995 159.08016601 456.10545792 164.1785118 456.11418533 169.27686119 C456.13393625 181.58895138 456.1440138 193.90104238 456.15291312 206.21314445 C456.1572979 212.01281548 456.16266419 217.8124856 456.16790199 223.61215591 C456.18491221 242.89394917 456.19940641 262.17574186 456.20665073 281.45754147 C456.20856059 286.45982997 456.21048093 291.46211848 456.21243668 296.46440697 C456.21292042 297.7076809 456.21340416 298.95095483 456.21390256 300.23190372 C456.22220302 320.3724648 456.24754117 340.51296649 456.28001735 360.65350164 C456.3130959 381.33637252 456.33110018 402.01921323 456.33429497 422.70211071 C456.33645923 434.31278444 456.34519571 445.92337154 456.37075615 457.53401947 C456.39247389 467.42189129 456.4005082 477.30965543 456.39078937 487.1975484 C456.38624795 492.24017333 456.3881219 497.28257612 456.40755081 502.32517052 C456.42520618 506.94747755 456.42416549 511.56940077 456.40865352 516.19171201 C456.40628107 517.85797566 456.41058204 519.52426605 456.42248217 521.19048888 C456.52848786 537.02216975 453.6085776 549.87864743 442.72977066 561.82451439 C434.26591677 569.87641079 423.81446142 573.38579102 412.30502796 573.38869667 C411.57924639 573.39160355 410.85346481 573.39451043 410.10568985 573.3975054 C407.68477042 573.40477775 405.26410664 573.39787506 402.84318924 573.39098167 C401.08553276 573.3932872 399.32787725 573.39646434 397.57022375 573.40043616 C392.74857734 573.40878021 387.92701017 573.40466063 383.10536349 573.39846373 C377.90214225 573.39393863 372.69893463 573.40092331 367.49571609 573.40642357 C357.30557812 573.41531877 347.1154696 573.41339493 336.92533047 573.40759829 C328.64327269 573.40308206 320.36122316 573.40246873 312.07916451 573.40464592 C310.90054304 573.40495239 309.72192158 573.40525885 308.50758431 573.4055746 C306.11324617 573.40621405 303.71890802 573.40686248 301.32456987 573.40751979 C278.87022529 573.41322352 256.41589703 573.40666464 233.96155512 573.39591905 C214.69556475 573.38698467 195.42959848 573.38853458 176.16360855 573.39775658 C153.79131611 573.40846044 131.41903798 573.41267297 109.04674333 573.40653205 C106.66089308 573.40589495 104.27504283 573.40526621 101.88919258 573.40464592 C100.12836559 573.40418309 100.12836559 573.40418309 98.33196633 573.40371092 C90.06056813 573.40198424 81.78917901 573.40489852 73.51778221 573.40960503 C63.43662538 573.41521519 53.35549969 573.41369457 43.27434642 573.40304354 C38.13100665 573.39778851 32.9877188 573.39572725 27.84437943 573.40234184 C23.13486503 573.40830689 18.42545063 573.40501693 13.7159453 573.39438674 C12.01347936 573.39215507 10.31100495 573.39328377 8.60854448 573.39813831 C-7.9511004 573.44173083 -20.45896091 571.26241199 -32.88741684 559.45732689 C-43.94466203 547.77048767 -43.51982263 534.03338209 -43.47040939 518.88142967 C-43.47458462 516.80244912 -43.48006317 514.72347085 -43.4867292 512.6444968 C-43.50117767 506.94381892 -43.49694089 501.24328569 -43.48956239 495.54259992 C-43.48483158 489.38978231 -43.49733982 483.23699603 -43.5075798 477.08418846 C-43.52378132 465.73122657 -43.52621283 454.37832285 -43.52127481 443.02535606 C-43.51671456 432.53548908 -43.51732065 422.04563921 -43.52311516 411.55577278 C-43.52387203 410.14772986 -43.52462801 408.73968694 -43.5253831 407.33164402 C-43.52652832 405.20975041 -43.5276782 403.0878568 -43.52884235 400.96596319 C-43.53954465 381.2430164 -43.54427537 361.52007531 -43.53637218 341.79712677 C-43.53607501 341.05392798 -43.53577784 340.31072919 -43.53547166 339.54500922 C-43.53302282 333.5100271 -43.53041118 327.47504505 -43.52778753 321.44006301 C-43.51768579 297.90168246 -43.52604019 274.36337326 -43.54928207 250.82500267 C-43.57536435 224.36731937 -43.58820003 197.90967901 -43.58109432 171.45198238 C-43.58037828 168.62995077 -43.57970389 165.80791915 -43.57905388 162.98588753 C-43.57888407 162.29105377 -43.57871426 161.59622 -43.57853931 160.88033067 C-43.57623806 150.39982668 -43.58420498 139.91936261 -43.59734535 129.43886757 C-43.61226603 117.51732291 -43.61271321 105.59587497 -43.59527444 93.67432417 C-43.58675557 87.5928553 -43.58463683 81.51156483 -43.59992599 75.43010521 C-43.61375617 69.85998639 -43.60903102 64.29019911 -43.58968676 58.72009955 C-43.58592137 56.70808619 -43.5888642 54.69604637 -43.59929841 52.68405654 C-43.6789275 36.15013792 -41.83624432 24.31459524 -30.01632309 11.98076439 C-21.40304997 3.72188354 -11.87844168 0.02668913 0 0 Z M-6.1268294 41.31528814 C-7.83467352 44.57004768 -7.76516615 47.90516961 -7.70914173 51.48261166 C-7.71610934 52.3119631 -7.72307695 53.14131454 -7.73025569 53.99579784 C-7.74753321 56.78142192 -7.72911699 59.5656613 -7.71091843 62.35126305 C-7.71596236 64.36578692 -7.72319 66.38030632 -7.73241657 68.39481539 C-7.7513872 73.93572449 -7.73907781 79.47619369 -7.72169363 85.01709187 C-7.7083485 90.99057695 -7.72374644 96.96399645 -7.73551559 102.9374752 C-7.75285348 113.96453199 -7.74747982 124.99145488 -7.73052884 136.01850578 C-7.71496756 146.20448524 -7.7091074 156.39041378 -7.71286964 166.57640457 C-7.71310644 167.25180374 -7.71334325 167.92720291 -7.71358722 168.62306871 C-7.71456213 171.36465493 -7.71558294 174.10624112 -7.71667233 176.84782729 C-7.72675724 202.57009413 -7.70848501 228.29227152 -7.67695197 254.01451732 C-7.64908776 276.8741476 -7.64412895 299.73367152 -7.65914536 322.59331322 C-7.6629677 328.44731993 -7.66676247 334.30132664 -7.67031574 340.15533352 C-7.67075356 340.87600022 -7.67119137 341.59666692 -7.67164245 342.33917201 C-7.68287805 361.43362207 -7.67553653 380.52806429 -7.662435 399.6225118 C-7.66104641 401.67667696 -7.6596657 403.73084213 -7.65829658 405.7850073 C-7.65738719 407.14771852 -7.65646452 408.51042973 -7.65552847 409.87314093 C-7.64872832 420.05415299 -7.65139662 430.23513435 -7.65847588 440.41614532 C-7.66643565 451.98995467 -7.65950413 463.5636581 -7.63430084 475.1374448 C-7.62177546 481.04586555 -7.6156961 486.95410785 -7.6268425 492.86253548 C-7.63684505 498.26654282 -7.62851049 503.67019344 -7.60526132 509.07415717 C-7.60007983 511.03367095 -7.6017035 512.99321641 -7.61065597 514.9527166 C-7.62178218 517.60799586 -7.60849376 520.26205437 -7.58888721 522.91725826 C-7.59796603 523.68532868 -7.60704485 524.45339911 -7.61639878 525.24474439 C-7.54530295 530.15420619 -6.59700509 532.69761153 -3.08272934 536.13701439 C-0.17335337 537.59170237 2.36348338 537.26659847 5.61499119 537.27123547 C6.3147876 537.2735877 7.01458401 537.27593993 7.73558637 537.27836344 C10.10413123 537.28507368 12.47262149 537.28459461 14.84117508 537.28418541 C16.54700593 537.28748277 18.252836 537.29120806 19.95866507 537.29532689 C24.66474604 537.30536944 29.37081425 537.30906729 34.07690442 537.3117162 C39.1451841 537.31561254 44.21345362 537.32519128 49.28172684 537.33392906 C61.53018675 537.35371168 73.77864752 537.36376161 86.02711943 537.37265685 C91.78997463 537.3770365 97.5528289 537.38240412 103.31568336 537.38764572 C122.46350826 537.40465922 141.61133257 537.41915475 160.75916386 537.42639446 C165.7305673 537.42830447 170.70197075 537.43022478 175.67337418 537.4321804 C176.90904614 537.43266414 178.1447181 537.43314789 179.41783466 537.43364628 C199.4476572 537.44195163 219.47742012 537.46729654 239.50721661 537.49976108 C260.05432076 537.5327936 280.60139457 537.55083974 301.14852542 537.5540387 C312.69193415 537.55620725 324.23525592 537.56500628 335.77863884 537.59049988 C345.60681611 537.61215486 355.43488531 537.62028299 365.26308373 537.6105331 C370.28038674 537.60597336 375.29746651 537.6079714 380.31473923 537.62729454 C384.90471477 537.64481989 389.49430247 537.6440156 394.08428153 537.62839725 C395.74783061 537.62600493 397.41140582 537.63042811 399.07491479 537.6422259 C401.33109499 537.65724026 403.58588222 537.64774678 405.84202671 537.63199902 C407.0966777 537.63297582 408.35132868 537.63395263 409.6439994 537.63495904 C413.53262126 537.04340451 415.18184934 535.91922319 417.91727066 533.13701439 C419.06281326 529.70038659 419.04143875 527.06911132 419.04031849 523.44283581 C419.04204926 522.41195649 419.04204926 522.41195649 419.04381499 521.36025134 C419.04647732 519.04043848 419.04196262 516.720694 419.03752518 514.40088463 C419.03796096 512.72775115 419.03883599 511.05461774 419.04011434 509.38148469 C419.04235797 504.77061668 419.0383398 500.15977175 419.03333628 495.54890668 C419.02903009 490.58163284 419.03047833 485.61436037 419.03123856 480.64708519 C419.03176368 472.03654546 419.02861805 463.42601329 419.02300072 454.81547546 C419.01488421 442.36598163 419.01227034 429.91649146 419.01101273 417.46699526 C419.00882245 397.27000412 419.002163 377.07301701 418.99271011 356.87602806 C418.98353538 337.25298139 418.97645484 317.62993582 418.9722023 298.00688744 C418.97193958 296.7979424 418.97167685 295.58899736 418.97140617 294.34341762 C418.97010116 288.27868067 418.96883745 282.21394372 418.96759427 276.14920676 C418.9572224 225.81180651 418.93960473 175.47441065 418.91727066 125.13701439 C417.91217453 125.13558937 416.9070784 125.13416435 415.87152481 125.13269615 C406.36779128 125.1159772 396.86448324 125.07305454 387.36097527 125.00492382 C382.47587019 124.97073251 377.59107524 124.9455561 372.70584488 124.94145775 C367.98524675 124.9371579 363.26534728 124.90855611 358.54496765 124.86358261 C356.75023224 124.85066131 354.95541298 124.84628077 353.1606369 124.8508606 C334.11347768 124.88812057 334.11347768 124.88812057 326.91727066 119.13701439 C322.38390663 113.67881028 321.79697772 108.01626885 321.71194839 101.1653347 C321.7020488 100.47224709 321.6921492 99.77915947 321.68194962 99.0650692 C321.65044647 96.78179361 321.62562164 94.49849725 321.60086441 92.21513939 C321.58028521 90.62901339 321.55928848 89.04289275 321.53789139 87.45677757 C321.48277045 83.28771378 321.43331729 79.11860131 321.3850441 74.94945335 C321.3347561 70.69291936 321.27910817 66.43645581 321.22391129 62.17998314 C321.1164518 53.8323865 321.01497986 45.48473082 320.91727066 37.13701439 C279.85413966 36.99974828 238.79103851 36.89399054 197.727724 36.83062241 C192.88229582 36.82311797 188.03686809 36.81535206 183.19144058 36.80742455 C182.22678356 36.80585068 181.26212654 36.80427682 180.26823749 36.80265526 C164.63871743 36.77653143 149.00932948 36.72921521 133.37988786 36.67409761 C117.34838603 36.61803272 101.3169535 36.58467107 85.28535765 36.57248342 C75.38908421 36.56424146 65.49318414 36.53818963 55.5970256 36.48951559 C48.81528703 36.45785436 42.03374213 36.44820139 35.25193498 36.45600612 C31.33621904 36.45985779 27.42115652 36.45386189 23.50555611 36.42178154 C19.92191079 36.39263468 16.33935969 36.39107291 12.75566455 36.41162102 C10.84257446 36.41536649 8.92949771 36.38943975 7.01659328 36.36252654 C5.88150126 36.37447283 4.74640925 36.38641912 3.57692051 36.39872742 C2.59762178 36.3964491 1.61832305 36.39417077 0.6093486 36.39182341 C-2.56775337 37.27127333 -4.16541432 38.67714882 -6.1268294 41.31528814 Z " fill="#FEFDFE" transform="translate(300.0827293395996,110.86298561096191)"/>
<path d="M0 0 C2.87245211 1.73810101 5.76231254 3.44469561 8.65527344 5.1484375 C13.24283269 7.85278284 17.82509479 10.56568568 22.40136719 13.2890625 C22.99112839 13.64002991 23.58088959 13.99099731 24.18852234 14.3526001 C25.38482466 15.06456146 26.5811188 15.77653657 27.77740479 16.48852539 C42.82506673 25.44157416 57.89297184 34.35535333 73.06005859 43.10498047 C81.91603758 48.22142367 90.75220852 53.37159136 99.56933594 58.5546875 C100.31135254 58.99006836 101.05336914 59.42544922 101.81787109 59.87402344 C103.63649547 60.94600767 105.44827926 62.02832952 107.25683594 63.1171875 C108.18882812 63.67535156 109.12082031 64.23351562 110.08105469 64.80859375 C114.95131937 68.22618922 118.51526567 71.93302149 120.56933594 77.5546875 C121.31489683 83.23320611 120.90629865 87.75780359 117.56933594 92.5546875 C112.29301421 97.8550581 106.47471779 101.61681711 99.94433594 105.1796875 C98.0658843 106.22895299 96.1883063 107.27978379 94.31152344 108.33203125 C93.35600586 108.86554199 92.40048828 109.39905273 91.41601562 109.94873047 C86.92791349 112.48069752 82.49836677 115.10865444 78.06933594 117.7421875 C69.31432606 122.93613343 60.54068129 128.09723091 51.75683594 133.2421875 C50.49347205 133.98247334 49.23012556 134.72278886 47.96679688 135.46313477 C39.2010841 140.59983122 39.2010841 140.59983122 35.02685547 143.04248047 C24.76500423 149.04769853 14.56082875 155.14508006 4.3828125 161.29150391 C-0.19639183 164.04968261 -4.78247708 166.79390519 -9.42675781 169.44140625 C-10.10665771 169.82901123 -10.78655762 170.21661621 -11.48706055 170.6159668 C-16.13899021 172.86275358 -20.60563419 173.05754287 -25.55566406 171.5546875 C-30.72630269 169.33579139 -34.09809918 165.34948729 -36.49103069 160.33077145 C-37.57103911 157.13995882 -37.68512476 154.59041227 -37.69136047 151.22328186 C-37.69844528 149.94612808 -37.70553009 148.6689743 -37.71282959 147.3531189 C-37.71053596 145.94512904 -37.70802629 144.53713952 -37.70532227 143.12915039 C-37.70967131 141.64062749 -37.7148551 140.15210682 -37.72080994 138.66358948 C-37.73419025 134.6263961 -37.73477971 130.58929639 -37.73224664 126.55208516 C-37.73117631 123.17980174 -37.73606185 119.80753722 -37.74085206 116.43525785 C-37.7519438 108.47871544 -37.75238646 100.52222023 -37.74633789 92.56567383 C-37.74029689 84.36146025 -37.75261303 76.15741811 -37.77390796 67.95323378 C-37.79152855 60.9051034 -37.79752462 53.85702757 -37.79427022 46.80887598 C-37.79245801 42.60121049 -37.79508729 38.39366732 -37.80898476 34.1860218 C-37.82156603 30.22888616 -37.81961629 26.27201767 -37.80657387 22.31488609 C-37.80420921 20.86448705 -37.80693884 19.41406918 -37.81519699 17.96369171 C-37.82567444 15.9801781 -37.8157556 13.99658829 -37.80488586 12.01307678 C-37.80505361 10.90420136 -37.80522135 9.79532595 -37.80539417 8.65284824 C-37.00870954 2.06608889 -33.36885779 -2.35547513 -28.43066406 -6.4453125 C-18.85018327 -12.56617523 -8.26675595 -5.01897803 0 0 Z " fill="#FEFDFE" transform="translate(464.4306640625,218.4453125)"/>
<path d="M0 0 C1.12044293 -0.00384115 2.24088586 -0.00768229 3.39528161 -0.01163983 C4.63144477 -0.01077335 5.86760793 -0.00990687 7.14123058 -0.00901413 C8.45038077 -0.01198525 9.75953096 -0.01495637 11.10835236 -0.01801753 C14.74989974 -0.02609654 18.39142742 -0.0278776 22.03298271 -0.028615 C25.95742217 -0.03046398 29.88185136 -0.03801051 33.8062849 -0.04475021 C42.39094567 -0.05834028 50.97560177 -0.06435925 59.5602715 -0.06876087 C64.91880375 -0.07152206 70.27733419 -0.07575917 75.63586521 -0.08026505 C90.46709899 -0.0924584 105.29833132 -0.10275771 120.12957001 -0.10614014 C121.07905848 -0.1063597 122.02854696 -0.10657927 123.00680782 -0.10680549 C124.43447969 -0.10713291 124.43447969 -0.10713291 125.89099342 -0.10746694 C127.81971729 -0.1079104 129.74844116 -0.10835697 131.67716503 -0.10880661 C133.11224049 -0.10913875 133.11224049 -0.10913875 134.57630738 -0.10947761 C150.08204867 -0.11342647 165.587743 -0.13088288 181.09346614 -0.15416613 C197.00642659 -0.17786837 212.91936346 -0.19034147 228.83234185 -0.19150805 C237.76954212 -0.19242543 246.7066812 -0.19819349 255.64386463 -0.21632767 C263.25342384 -0.23171341 270.86290293 -0.23685815 278.47247473 -0.22858956 C282.35573524 -0.22467768 286.23883434 -0.22563878 290.12207508 -0.23964691 C294.3304003 -0.25468906 298.53836038 -0.24653536 302.74669933 -0.23606491 C303.97617033 -0.24412132 305.20564132 -0.25217772 306.47236902 -0.26047826 C313.08155098 -0.22187613 318.20768403 -0.06742083 323.27897167 4.66658401 C326.85579876 9.34397329 328.05869357 11.85796026 327.97428417 17.68220901 C327.39356009 21.86742736 325.56689817 25.12163047 322.63444042 28.13142776 C316.23254356 32.88795899 310.49153938 32.6963974 302.69805431 32.63936234 C301.39098111 32.6456023 300.08390791 32.65184226 298.73722643 32.65827131 C295.11984259 32.6749395 291.50288191 32.66672997 287.88549674 32.65432644 C283.98015258 32.64526778 280.07488066 32.65924976 276.1695509 32.67024612 C268.52294541 32.68802776 260.87649703 32.68419283 253.22988541 32.67259556 C247.0144324 32.66355945 240.7990234 32.66233801 234.58356571 32.66669083 C233.69870833 32.66730376 232.81385094 32.66791669 231.9021797 32.6685482 C230.10455627 32.66982711 228.30693286 32.67112396 226.50930946 32.67243856 C209.65464981 32.68384349 192.8000772 32.67073237 175.94543182 32.6492371 C161.48763913 32.63136929 147.02997493 32.63446777 132.57218456 32.65291214 C115.77910209 32.67432573 98.98609591 32.6827416 82.19300169 32.67046309 C80.40171144 32.6691889 78.61042117 32.66793142 76.8191309 32.66669083 C75.93780622 32.66607372 75.05648155 32.66545662 74.14845007 32.66482082 C67.94195451 32.66136916 61.73550741 32.66719237 55.52901936 32.67660904 C47.96312655 32.68783597 40.3973997 32.68477455 32.83152587 32.66348606 C28.97226045 32.65298445 25.11327158 32.64883842 21.25400829 32.66208267 C17.06836889 32.67622954 12.88342577 32.65932063 8.69781017 32.63936234 C7.48078429 32.64828522 6.2637584 32.65720811 5.00985295 32.66640139 C-1.91805721 32.6022399 -6.48958702 31.89426545 -12.36555958 28.13142776 C-15.89250002 24.24274985 -17.16533398 20.58342259 -17.52962208 15.44002151 C-17.14966102 10.09342668 -14.60367295 6.30914537 -10.80305958 2.69392776 C-7.0936371 0.31609284 -4.3099284 0.0055343 0 0 Z " fill="#FEFEFE" transform="translate(354.3655595779419,508.8685722351074)"/>
<path d="M0 0 C1.11721849 -0.00445784 2.23443697 -0.00891569 3.38551056 -0.01350862 C4.62322233 -0.01332426 5.86093409 -0.01313989 7.13615227 -0.01294994 C9.09647921 -0.01846498 9.09647921 -0.01846498 11.09640872 -0.02409142 C14.73635183 -0.0341286 18.37627845 -0.03783098 22.01623344 -0.04048073 C25.93732215 -0.04437879 29.85839773 -0.05395756 33.77947807 -0.0626936 C43.25595965 -0.0824737 52.73244231 -0.09252685 62.20893937 -0.10142139 C66.66987542 -0.10580236 71.13081027 -0.11116972 75.59174538 -0.11641026 C90.41864399 -0.13342522 105.24554185 -0.14791929 120.07244873 -0.155159 C123.92179808 -0.15706895 127.77114742 -0.15898927 131.62049675 -0.16094494 C132.57725461 -0.16142868 133.53401246 -0.16191242 134.51976298 -0.16241082 C150.01776545 -0.17071065 165.51569073 -0.19604557 181.01365949 -0.22852562 C196.91981755 -0.26158968 212.82593637 -0.27960723 228.73212898 -0.28280324 C237.66495922 -0.2849691 246.59767694 -0.29372876 255.53047371 -0.31926441 C263.13855102 -0.34096262 270.74648849 -0.34902624 278.35459323 -0.33929763 C282.23611829 -0.33475015 286.11735478 -0.33666486 289.99884033 -0.35605907 C294.20879552 -0.37691265 298.41810962 -0.36671431 302.62809563 -0.35352612 C303.85242306 -0.36449536 305.07675049 -0.37546461 306.33817875 -0.38676625 C313.27924352 -0.33419112 317.89329185 0.32436294 323.76307487 4.13422108 C327.66195627 8.53444861 328.40985825 12.9723795 328.14588737 18.77093983 C327.32062902 23.86564703 324.68952059 26.43466003 320.70057487 29.44672108 C316.71808343 31.73453531 313.9492568 32.26031497 309.43433666 32.27123547 C307.76597255 32.27884728 307.76597255 32.27884728 306.06390411 32.28661287 C304.83688708 32.28711063 303.60987006 32.28760838 302.3456707 32.28812122 C301.04609875 32.29250348 299.7465268 32.29688573 298.40757388 32.30140078 C294.79269567 32.31337096 291.17783081 32.31901575 287.56293666 32.32358193 C283.66708555 32.32953632 279.77125042 32.34114655 275.87541008 32.35187244 C266.46312492 32.3763998 257.05083447 32.39102387 247.63852718 32.40393251 C244.9804507 32.40764413 242.32237474 32.41161739 239.66429877 32.41568518 C223.16082863 32.44092084 206.65735767 32.46297568 190.15387249 32.47541332 C186.33081687 32.47834306 182.50776129 32.48130472 178.68470573 32.48431873 C177.25938905 32.48543781 177.25938905 32.48543781 175.80527809 32.48657949 C160.4107841 32.49923441 145.01640557 32.53245917 129.62196556 32.57412057 C113.81973777 32.61653528 98.0175691 32.6401078 82.21528453 32.64533389 C73.34168384 32.64874848 64.46826361 32.66050931 55.59471893 32.69343662 C48.03788372 32.72143191 40.48126595 32.73243878 32.9243829 32.72124116 C29.06911488 32.71605317 25.21430226 32.71894981 21.35910034 32.7437067 C17.17754971 32.77033501 12.99700209 32.75814384 8.81539726 32.74222279 C6.99160214 32.76304592 6.99160214 32.76304592 5.13096267 32.78428972 C-1.79683746 32.71920352 -7.04246484 32.02220957 -12.23692513 27.13422108 C-15.96013674 21.97568817 -17.04860452 17.42473642 -16.23692513 11.13422108 C-12.61222716 4.15332129 -7.85714389 0.0144873 0 0 Z " fill="#FEFDFD" transform="translate(353.23692512512207,441.86577892303467)"/>
<path d="M0 0 C1.12740972 -0.00445784 2.25481945 -0.00891569 3.4163931 -0.01350862 C4.66033816 -0.01332426 5.90428321 -0.01313989 7.18592358 -0.01294994 C9.16189951 -0.01846498 9.16189951 -0.01846498 11.17779416 -0.02409142 C14.84214229 -0.03411634 18.50647404 -0.03782899 22.17083395 -0.04048073 C26.11981521 -0.04438225 30.06878348 -0.0539606 34.01775646 -0.0626936 C43.55758486 -0.08246089 53.09741432 -0.09252392 62.63725808 -0.10142139 C67.12783759 -0.10580329 71.61841591 -0.1111703 76.10899448 -0.11641026 C91.03287321 -0.13342175 105.95675119 -0.14791696 120.88063812 -0.155159 C124.75389958 -0.15706894 128.62716104 -0.15898927 132.50042248 -0.16094494 C133.46312068 -0.16142868 134.42581889 -0.16191242 135.41768976 -0.16241082 C151.02044392 -0.17071505 166.62312151 -0.19605894 182.22584222 -0.22852562 C198.23824343 -0.26157369 214.25060569 -0.27960566 230.2630412 -0.28280324 C239.25615511 -0.28497028 248.24915732 -0.29374734 257.24223804 -0.31926441 C264.8993891 -0.34094057 272.55640132 -0.34903703 280.21357957 -0.33929763 C284.12119146 -0.33474411 288.0285167 -0.33669985 291.93608952 -0.35605907 C295.51331533 -0.37362886 299.09004409 -0.372744 302.66727474 -0.35716178 C304.57446813 -0.35364606 306.48166636 -0.36985808 308.38878804 -0.38676625 C314.75473654 -0.33864792 318.80844364 -0.23291385 323.60320568 4.13422108 C327.0323764 7.83411581 327.90290317 10.71345598 328.10320568 15.63422108 C327.90290317 20.55498618 327.0323764 23.43432635 323.60320568 27.13422108 C318.76774007 30.78549103 315.31502844 32.25721692 309.30570221 32.26844215 C308.20042626 32.2729 307.09515031 32.27735784 305.95638114 32.28195077 C304.73714601 32.28176641 303.51791089 32.28158205 302.26172924 32.2813921 C300.97032439 32.28506879 299.67891955 32.28874547 298.34838122 32.29253358 C294.75630373 32.30255788 291.16424295 32.30627106 287.57215345 32.30892289 C283.70084413 32.31282467 279.82954805 32.3224031 275.95824718 32.33113575 C266.60528417 32.35090379 257.25232006 32.36096682 247.89934137 32.36986354 C243.49568885 32.37424591 239.09203753 32.37961285 234.68838596 32.38485241 C220.05102857 32.40186507 205.41367192 32.41635946 190.77630615 32.42360115 C186.97731367 32.42551107 183.17832119 32.4274314 179.37932873 32.42938709 C178.43509883 32.42987083 177.49086894 32.43035457 176.51802602 32.43085297 C161.22054897 32.43915409 145.9231501 32.46449221 130.62570719 32.49696777 C114.92291969 32.53003228 99.22017192 32.54804936 83.51734942 32.55124539 C74.69966961 32.55341106 65.8821038 32.56216797 57.06445789 32.58770657 C49.5552184 32.60940527 42.04612058 32.61746809 34.53685329 32.60773978 C30.70595149 32.60319264 26.87534209 32.6051051 23.04448032 32.62450123 C18.88931426 32.64535751 14.73479764 32.63515555 10.57960033 32.62196827 C8.76747806 32.63842214 8.76747806 32.63842214 6.91874725 32.65520841 C-1.15563615 32.5932532 -6.3885954 31.40406756 -12.77179432 26.19672108 C-16.2781166 21.74638895 -16.97749193 17.74763129 -16.39679432 12.13422108 C-14.62250959 7.77167564 -12.01254286 4.16678437 -8.39679432 1.13422108 C-5.32013818 0.10866903 -3.22314131 0.0059017 0 0 Z " fill="#FEFCFD" transform="translate(353.39679431915283,576.8657789230347)"/>
<path d="M0 0 C0 3.93820864 -1.60037344 5.95736906 -3.61328125 9.2578125 C-7.06306722 16.07964278 -8.44533045 22.40418214 -8.38476086 30.00981998 C-8.38991076 30.87452167 -8.39506067 31.73922335 -8.40036663 32.63012812 C-8.41394485 35.51756836 -8.40631161 38.4045511 -8.39872742 41.29200745 C-8.40416856 43.38692762 -8.41092082 45.48184473 -8.41886932 47.57675689 C-8.43689436 53.32565492 -8.43633756 59.07442377 -8.43273985 64.8233434 C-8.43211614 71.02571839 -8.44873485 77.22804999 -8.46325684 83.43040466 C-8.48605248 94.17384738 -8.49803385 104.91724488 -8.50238609 115.66070747 C-8.50699536 126.92648471 -8.51778878 138.19222817 -8.53681374 149.45799065 C-8.53799386 150.15886346 -8.53917399 150.85973627 -8.54038988 151.58184766 C-8.54641543 155.14132991 -8.55255119 158.70081196 -8.55872939 162.26029395 C-8.60227384 187.46201322 -8.63199453 212.66373167 -8.65356445 237.86547852 C-8.67454902 262.34628512 -8.70180838 286.82707162 -8.73754883 311.30786133 C-8.73864831 312.06266988 -8.73974778 312.81747844 -8.74088058 313.59515998 C-8.75192906 321.17536394 -8.76310496 328.7555677 -8.7743742 336.33577133 C-8.79732737 351.77706408 -8.81943019 367.218358 -8.84101868 382.65965271 C-8.8420123 383.3695945 -8.84300591 384.07953628 -8.84402964 384.81099145 C-8.91026704 432.20731143 -8.95662067 479.60365417 -9 527 C-9.66 527 -10.32 527 -11 527 C-12.14010452 522.90132613 -12.13838978 518.95576492 -12.12584114 514.72870731 C-12.12729458 513.88309145 -12.12874802 513.03747559 -12.13024551 512.166235 C-12.13391435 509.31369146 -12.13041497 506.46120105 -12.12698364 503.60865784 C-12.12813511 501.55049342 -12.12972281 499.4923292 -12.13171089 497.43416542 C-12.13590069 491.76346501 -12.13381507 486.09278135 -12.13072467 480.42208087 C-12.12846937 474.31224952 -12.13195084 468.20242111 -12.13470459 462.09259033 C-12.13890221 450.80997797 -12.13852722 439.52737246 -12.13579312 428.24476026 C-12.13327972 417.82196034 -12.13261986 407.39916239 -12.13381577 396.97636223 C-12.13389215 396.28557577 -12.13396854 395.59478931 -12.13404724 394.88306992 C-12.13435856 392.07908467 -12.13467696 389.27509943 -12.135007 386.47111418 C-12.13806762 360.1547836 -12.13529004 333.83845644 -12.1299101 307.52212639 C-12.12516485 284.13250626 -12.1255885 260.74289157 -12.13037109 237.35327148 C-12.13572386 211.08724873 -12.13785005 184.82122899 -12.13475883 158.55520576 C-12.1344381 155.75595502 -12.13412526 152.95670428 -12.13381577 150.15745354 C-12.13373669 149.46818456 -12.13365761 148.77891559 -12.13357614 148.06875968 C-12.13243784 137.65222387 -12.13377048 127.23569024 -12.13629532 116.81915474 C-12.13915152 104.97634369 -12.13834981 93.13353908 -12.13301457 81.29072828 C-12.13038085 75.24465679 -12.12936696 69.19859636 -12.13266373 63.15252495 C-12.13563344 57.62273472 -12.1340225 52.09296586 -12.12868617 46.56317758 C-12.12756489 44.55783808 -12.12814684 42.55249679 -12.13056196 40.54715843 C-12.13358398 37.83045755 -12.13050258 35.11383078 -12.12584114 32.39713383 C-12.12935289 31.21769895 -12.12935289 31.21769895 -12.13293558 30.01443711 C-12.11983408 26.21779285 -11.91962733 22.69091605 -11 19 C-10.34 19 -9.68 19 -9 19 C-9 16.69 -9 14.38 -9 12 C-8.01 11.67 -7.02 11.34 -6 11 C-5.37907282 9.18703385 -5.37907282 9.18703385 -5 7 C-3.75278368 3.25835104 -3.3906569 2.26043793 0 0 Z " fill="#CD334E" transform="translate(266,125)"/>
<path d="M0 0 C7.22783642 10.84175463 4.27643169 31.07304752 4.24723816 43.54812622 C4.24882852 46.02016546 4.25129437 48.49220426 4.25455457 50.96424186 C4.25961042 56.31606782 4.25852213 61.66783873 4.2518692 67.01965904 C4.24200382 74.97777532 4.2436961 82.93586074 4.2476195 90.89398068 C4.25387882 104.28607877 4.25074135 117.6781592 4.24202538 131.07025528 C4.23340015 144.32585947 4.22850548 157.58145571 4.22869301 170.83706284 C4.22870448 172.0755805 4.22870448 172.0755805 4.22871618 173.33911873 C4.22875709 176.69095777 4.2288227 180.04279681 4.22892199 183.39463585 C4.22982714 214.80695351 4.21989602 246.21925909 4.20449232 277.63157257 C4.19085676 305.54116732 4.18463162 333.4507535 4.18530273 361.36035156 C4.18534315 363.15392769 4.18538351 364.94750382 4.18542381 366.74107994 C4.18544416 367.62779205 4.18546452 368.51450416 4.18548548 369.42808633 C4.18558628 373.89165882 4.18567686 378.3552313 4.18575573 382.81880379 C4.18577244 383.69939909 4.18578916 384.5799944 4.18580638 385.48727442 C4.18617139 408.81602365 4.18163491 432.14477182 4.17542917 455.47352016 C4.17520889 456.30309969 4.17498862 457.13267922 4.17476168 457.98739752 C4.17387346 461.32326863 4.17298506 464.65913975 4.17207072 467.99501086 C4.16891029 479.60356602 4.16740141 491.21212034 4.16695923 502.8206759 C4.16636258 517.77197672 4.16237649 532.72327046 4.15252777 547.67456825 C4.14740839 555.58294599 4.14500488 563.49131335 4.14652396 571.39969267 C4.14734326 577.29670886 4.14294911 583.19371352 4.13647345 589.09072648 C4.13465534 591.48199393 4.13453446 593.87326338 4.13624074 596.26453091 C4.1382971 599.50398901 4.13425661 602.74338325 4.12863445 605.98283577 C4.13068977 606.92029436 4.13274509 607.85775294 4.13486269 608.82361937 C4.12048324 613.3313397 3.91936972 617.56363268 3 622 C2.67 622 2.34 622 2 622 C2.00037972 620.7455547 2.00075944 619.4911094 2.00115067 618.1986506 C2.01782081 562.90967644 2.03324842 507.62070205 2.04234314 452.33172607 C2.04255023 451.07602034 2.04255023 451.07602034 2.04276149 449.79494682 C2.04575445 431.60140896 2.04852462 413.40787107 2.05106533 395.21433313 C2.05231266 386.29214005 2.05360921 377.36994698 2.05493164 368.44775391 C2.0550624 367.55989161 2.05519316 366.67202932 2.05532788 365.75726211 C2.05958872 336.9825618 2.06709965 308.20786346 2.07629722 279.43316435 C2.08573227 249.86177641 2.09188602 220.29038956 2.09391499 190.71900015 C2.09420314 186.54160709 2.09452878 182.36421404 2.09487724 178.18682098 C2.09494467 177.36465552 2.09501209 176.54249006 2.09508156 175.6954105 C2.09626296 162.46439372 2.1009002 149.23338031 2.10683203 136.00236491 C2.11272267 122.69857283 2.11496713 109.39478409 2.11350138 96.09099075 C2.1127412 88.18839828 2.11476503 80.285818 2.12079754 72.38322773 C2.12499622 66.47919192 2.12395731 60.57516453 2.12089889 54.67112777 C2.12047638 52.28465785 2.12174492 49.89818691 2.12488318 47.51171902 C2.55223071 29.11819854 2.55223071 29.11819854 0 11 C-0.06688591 9.08438746 -0.08531719 7.16664408 -0.0625 5.25 C-0.05347656 4.26515625 -0.04445313 3.2803125 -0.03515625 2.265625 C-0.02355469 1.51796875 -0.01195312 0.7703125 0 0 Z " fill="#620F84" transform="translate(990,155)"/>
<path d="M0 0 C0.33 0 0.66 0 1 0 C1.0270043 1.45823212 1.04639787 2.91660675 1.0625 4.375 C1.07410156 5.18710938 1.08570313 5.99921875 1.09765625 6.8359375 C1 9 1 9 0 11 C0 12.175625 0 13.35125 0 14.5625 C0 15.696875 0 16.83125 0 18 C-0.33 18.33 -0.66 18.66 -1 19 C-1 20.9649542 -0.99645893 22.93046179 -0.9375 24.89453125 C-1 27 -1 27 -1.49614384 28.86129333 C-2.0227214 31.09644499 -2.12467916 33.03105374 -2.1241985 35.32477546 C-2.12644579 36.1895147 -2.12869308 37.05425394 -2.13100848 37.9451974 C-2.12838146 38.89248358 -2.12575445 39.83976975 -2.12304783 40.81576157 C-2.12420167 41.82833603 -2.12535552 42.8409105 -2.12654433 43.88416904 C-2.12920821 47.30461118 -2.12469066 50.725007 -2.12025452 54.14544678 C-2.12069026 56.61140493 -2.12156524 59.07736304 -2.12284368 61.54332089 C-2.12461841 66.91886698 -2.12327033 72.29439898 -2.11920547 77.66994286 C-2.11317791 85.66321646 -2.11286898 93.65648307 -2.11374746 101.64975854 C-2.11506237 115.09480319 -2.11171615 128.53984294 -2.10573006 141.98488617 C-2.0998167 155.30064671 -2.09596485 168.61640521 -2.09487724 181.93216705 C-2.0948085 182.75954112 -2.09473976 183.58691519 -2.09466894 184.4393612 C-2.09433062 188.64103218 -2.09402923 192.84270316 -2.09374207 197.04437414 C-2.09164064 226.81880941 -2.08490046 256.59324201 -2.07543945 286.36767578 C-2.06625777 315.29638657 -2.05917281 344.22509664 -2.05493164 373.15380859 C-2.05480011 374.04523387 -2.05466859 374.93665914 -2.05453308 375.85509731 C-2.05321458 384.80700857 -2.05193876 393.75891985 -2.05069422 402.71083113 C-2.04815788 420.94754062 -2.04533663 439.18425006 -2.04234314 457.42095947 C-2.04220585 458.2594872 -2.04206856 459.09801493 -2.04192711 459.96195259 C-2.03272363 515.97463618 -2.01685734 571.98731825 -2 628 C-1.34 628 -0.68 628 0 628 C-0.020625 629.11375 -0.04125 630.2275 -0.0625 631.375 C-0.26380718 634.83215921 -0.26380718 634.83215921 1 637 C1.22467831 638.53668865 1.40796805 640.07968054 1.5625 641.625 C1.68818359 642.85089844 1.68818359 642.85089844 1.81640625 644.1015625 C1.90728516 645.04128906 1.90728516 645.04128906 2 646 C1.34 646.33 0.68 646.66 0 647 C-0.48311538 644.67693457 -0.95204141 642.35235008 -1.4033621 640.02285445 C-1.75702536 638.23102634 -2.12840535 636.44230423 -2.53819817 634.66247404 C-4.8213416 623.5414724 -4.28018571 612.14540458 -4.26069641 600.85073853 C-4.2637188 598.37293011 -4.26760873 595.89512263 -4.27228898 593.41731679 C-4.28042336 588.04006709 -4.28237262 582.66286862 -4.27878571 577.28561783 C-4.27346555 569.28876713 -4.27958732 561.29195313 -4.28786864 553.29510642 C-4.30309377 538.17779263 -4.3048151 523.0604956 -4.30234561 507.94317575 C-4.30051109 496.2636326 -4.30227591 484.58409493 -4.30657005 472.90455246 C-4.30717246 471.22496692 -4.30777366 469.54538138 -4.30837366 467.86579584 C-4.30928094 465.33458948 -4.31018961 462.80338311 -4.31110601 460.27217675 C-4.31953385 436.74182803 -4.32387256 413.21148138 -4.31969929 389.68113136 C-4.31954291 388.79439648 -4.31938654 387.90766161 -4.31922542 386.99405597 C-4.31841967 382.5000384 -4.3175739 378.00602083 -4.31671212 373.51200326 C-4.31654103 372.619528 -4.31636994 371.72705274 -4.31619367 370.80753277 C-4.31584701 369.00272945 -4.31549848 367.19792613 -4.31514808 365.39312281 C-4.30979455 337.32961501 -4.31771154 309.26613865 -4.33618164 281.20263672 C-4.35692506 249.64833434 -4.36761962 218.09405145 -4.36360615 186.53974187 C-4.36321084 183.17102965 -4.36284928 179.80231742 -4.36250877 176.43360519 C-4.36241804 175.60418992 -4.36232731 174.77477464 -4.36223383 173.92022556 C-4.36107053 161.42921671 -4.36769597 148.93822759 -4.37832069 136.44722366 C-4.39040361 122.22768744 -4.39189643 108.00819452 -4.37953053 93.78865762 C-4.37292937 85.84363811 -4.37446907 77.89872233 -4.38811904 69.95371124 C-4.39740323 64.00081359 -4.39077929 58.04804012 -4.37827124 52.09514396 C-4.37563515 49.70212579 -4.37795623 47.30909533 -4.38600711 44.91608925 C-4.43193199 30.23531598 -4.19005011 15.40752653 -1 1 C-0.67 0.67 -0.34 0.34 0 0 Z " fill="#DB0103" transform="translate(34,151)"/>
<path d="M0 0 C1.98 1.32 3.96 2.64 6 4 C5.34 4.33 4.68 4.66 4 5 C3.01 4.67 2.02 4.34 1 4 C-0.78562706 3.90507238 -2.57462075 3.86907542 -4.36276627 3.86577892 C-6.04250562 3.85909216 -6.04250562 3.85909216 -7.75617909 3.85227031 C-9.60940066 3.85254685 -9.60940066 3.85254685 -11.50006104 3.85282898 C-12.80850566 3.84915229 -14.11695028 3.8454756 -15.46504474 3.8416875 C-19.10465912 3.83166277 -22.74425701 3.82794995 -26.38388324 3.82529819 C-30.30629856 3.82139658 -34.22870081 3.81181818 -38.15110779 3.80308533 C-47.62716636 3.78331757 -57.10322601 3.77325462 -66.57930005 3.76435754 C-71.04036283 3.75997542 -75.50142442 3.75460844 -79.96248627 3.74936867 C-94.78942748 3.73235659 -109.61636794 3.71786178 -124.44331741 3.71061993 C-128.29147594 3.70871 -132.13963446 3.70678967 -135.98779297 3.70483398 C-137.42247497 3.70410837 -137.42247497 3.70410837 -138.88614044 3.7033681 C-154.38475487 3.6950654 -169.88329218 3.66972434 -185.38187292 3.63725331 C-201.28918782 3.60419726 -217.1964635 3.58617251 -233.10381293 3.58297569 C-242.03715532 3.58080931 -250.97038521 3.572042 -259.90369415 3.54651451 C-267.51067788 3.52482742 -275.1175218 3.51674727 -282.72453293 3.52648129 C-286.60594102 3.53103172 -290.48706052 3.52909695 -294.36842918 3.50971985 C-298.5764915 3.48889314 -302.78391144 3.4990549 -306.99200439 3.51225281 C-308.21856255 3.50128356 -309.4451207 3.49031432 -310.70884728 3.47901267 C-317.36396676 3.52953822 -321.60730598 3.97939474 -327 8 C-328.56869657 9.58732887 -328.56869657 9.58732887 -329.4375 11.25 C-329.953125 12.1575 -330.46875 13.065 -331 14 C-331.33 13.34 -331.66 12.68 -332 12 C-329.20446147 7.07985219 -326.45312275 4.04417297 -321 2 C-316.65615609 1.42104228 -312.34855591 1.4774755 -307.97181702 1.51898193 C-305.99661509 1.51385538 -305.99661509 1.51385538 -303.9815101 1.50862527 C-300.33724294 1.49970132 -296.69344798 1.51565289 -293.04924095 1.53573751 C-289.11544903 1.5530356 -285.18168303 1.54716415 -281.24786377 1.54412842 C-274.43584463 1.54203254 -267.62397892 1.5545665 -260.81199837 1.57707977 C-250.96308378 1.60960875 -241.11424326 1.62000771 -231.26528078 1.62503174 C-215.28545439 1.63378298 -199.30570975 1.66039393 -183.32592773 1.69824219 C-167.80444752 1.73496669 -152.28298951 1.76327631 -136.76147461 1.78027344 C-135.32599484 1.78184978 -135.32599484 1.78184978 -133.86151547 1.78345796 C-129.06052318 1.78867817 -124.25953073 1.79373299 -119.45853817 1.79870558 C-79.63896822 1.84016229 -39.81948951 1.91060609 0 2 C0 1.34 0 0.68 0 0 Z " fill="#A80332" transform="translate(669,506)"/>
<path d="M0 0 C27.06 0 54.12 0 82 0 C82 0.66 82 1.32 82 2 C71.47777166 2.78519308 61.06585335 3.11640699 50.5078125 2.94921875 C49.1005792 2.92990859 47.69334235 2.91085585 46.28610229 2.89204407 C43.3770145 2.85160917 40.46804778 2.80645357 37.55908203 2.75805664 C33.82913566 2.69663629 30.09915905 2.6501112 26.36895943 2.60722637 C23.48131578 2.57198385 20.59386265 2.52775304 17.70638657 2.48087502 C16.32928705 2.45985149 14.95213629 2.44194267 13.57495499 2.4272213 C11.66588997 2.40574265 9.75699359 2.37057544 7.84814453 2.3347168 C6.76389191 2.31837692 5.67963928 2.30203705 4.56253052 2.28520203 C2 2 2 2 0 0 Z " fill="#900D5D" transform="translate(636,236)"/>
<path d="M0 0 C0.33 0.66 0.66 1.32 1 2 C1.99 2 2.98 2 4 2 C4.33 5.96 4.66 9.92 5 14 C5.66 14 6.32 14 7 14 C7.12246094 14.71929688 7.24492188 15.43859375 7.37109375 16.1796875 C8.19974597 19.89575524 9.66898243 23.20352469 11.16015625 26.6953125 C12 29 12 29 12 32 C12.66 32.33 13.32 32.66 14 33 C14.88671875 35.21484375 14.88671875 35.21484375 15.6875 37.9375 C15.95949219 38.83339844 16.23148438 39.72929688 16.51171875 40.65234375 C17 43 17 43 16 45 C13 44 13 44 11.7890625 41.76953125 C10.50931764 38.51863575 9.23471038 35.26835102 8 32 C7.56171875 30.86046875 7.1234375 29.7209375 6.671875 28.546875 C-0.33856904 9.71158559 -0.33856904 9.71158559 0 0 Z " fill="#E9848B" transform="translate(33,796)"/>
<path d="M0 0 C1.98 1.32 3.96 2.64 6 4 C5.34 4.33 4.68 4.66 4 5 C3.01 4.67 2.02 4.34 1 4 C-0.7505349 3.89817104 -2.50464889 3.85370987 -4.25810242 3.84178162 C-5.89242722 3.82709839 -5.89242722 3.82709839 -7.55976868 3.81211853 C-8.75522812 3.80636307 -9.95068756 3.8006076 -11.18237305 3.79467773 C-13.07034607 3.77982834 -13.07034607 3.77982834 -14.99645996 3.76467896 C-18.44863123 3.73763741 -21.90081616 3.7166238 -25.35303473 3.69667697 C-28.96054561 3.67481279 -32.5680144 3.64742621 -36.17549133 3.62062073 C-43.0071085 3.57069969 -49.83874903 3.52575867 -56.67041188 3.48259836 C-64.44787028 3.43322096 -72.22528646 3.3783047 -80.00270402 3.32291877 C-96.00176367 3.20910776 -112.00086214 3.1022668 -128 3 C-128 2.67 -128 2.34 -128 2 C-85.76 2 -43.52 2 0 2 C0 1.34 0 0.68 0 0 Z " fill="#8C004A" transform="translate(669,506)"/>
<path d="M0 0 C0 3.33652209 -0.52919532 4.1279323 -2.25 6.875 C-8.7640327 18.36864113 -9.60257218 29.6060934 -9.609375 42.45703125 C-9.62439244 44.09756574 -9.64112691 45.73808531 -9.65948486 47.37858582 C-9.70277148 51.65114113 -9.72307045 55.9234927 -9.73822021 60.19622803 C-9.75793251 64.5742987 -9.79988552 68.95215371 -9.83984375 73.33007812 C-9.91472555 81.88666167 -9.96526972 90.44315961 -10 99 C-10.33 99 -10.66 99 -11 99 C-11 72.6 -11 46.2 -11 19 C-10.34 19 -9.68 19 -9 19 C-9 16.69 -9 14.38 -9 12 C-8.01 11.67 -7.02 11.34 -6 11 C-5.37907282 9.18703385 -5.37907282 9.18703385 -5 7 C-3.75278368 3.25835104 -3.3906569 2.26043793 0 0 Z " fill="#C0001A" transform="translate(266,125)"/>
<path d="M0 0 C0.66 0.33 1.32 0.66 2 1 C1.13375 1.70576172 1.13375 1.70576172 0.25 2.42578125 C-0.4925 3.04839844 -1.235 3.67101563 -2 4.3125 C-2.7425 4.92738281 -3.485 5.54226562 -4.25 6.17578125 C-6.34613723 7.93950063 -6.34613723 7.93950063 -6 11 C-6.78375 11.2475 -7.5675 11.495 -8.375 11.75 C-11.46654032 13.22216206 -11.69320634 13.95081479 -13 17 C-17.06497699 22.78477495 -22.52904239 28.04762559 -29 31 C-29.66 31.33 -30.32 31.66 -31 32 C-25.42210686 19.23801413 -10.64361399 8.41541816 0 0 Z " fill="#EA8A91" transform="translate(101,41)"/>
<path d="M0 0 C2.86868262 2.67545134 4.84554023 5.15853072 6.65625 8.6328125 C7.12160156 9.52226563 7.58695313 10.41171875 8.06640625 11.328125 C8.53949219 12.25109375 9.01257813 13.1740625 9.5 14.125 C9.97308594 15.02476563 10.44617188 15.92453125 10.93359375 16.8515625 C19 32.40341499 19 32.40341499 19 38 C19.66 38 20.32 38 21 38 C21.33 40.31 21.66 42.62 22 45 C21.01 45 20.02 45 19 45 C18.79431396 44.43716309 18.58862793 43.87432617 18.37670898 43.29443359 C14.5080482 32.76850153 10.56199066 22.50602726 5.25 12.6171875 C4 10 4 10 4 7 C3.34 7 2.68 7 2 7 C2 6.01 2 5.02 2 4 C1.34 4 0.68 4 0 4 C0 2.68 0 1.36 0 0 Z " fill="#731D83" transform="translate(964,88)"/>
<path d="M0 0 C0.99 0.33 1.98 0.66 3 1 C1.02 1.99 -0.96 2.98 -3 4 C-2.67 4.66 -2.34 5.32 -2 6 C-2.93972656 6.50660156 -2.93972656 6.50660156 -3.8984375 7.0234375 C-4.71570313 7.46945313 -5.53296875 7.91546875 -6.375 8.375 C-7.18710938 8.81585938 -7.99921875 9.25671875 -8.8359375 9.7109375 C-11.10814302 10.9443893 -11.10814302 10.9443893 -13 13 C-14.32 13 -15.64 13 -17 13 C-17 13.66 -17 14.32 -17 15 C-21.75 17 -21.75 17 -24 17 C-24.969375 17.66 -25.93875 18.32 -26.9375 19 C-30 21 -30 21 -33 21 C-28.8518939 17.42099383 -24.62571051 14.30394334 -20 11.375 C-19.40960938 10.9934375 -18.81921875 10.611875 -18.2109375 10.21875 C-14.57474034 7.896069 -10.87983059 5.89921777 -7 4 C-5.76422705 3.26093579 -4.53370405 2.5128967 -3.3125 1.75 C-2.219375 1.1725 -1.12625 0.595 0 0 Z " fill="#E67981" transform="translate(136,19)"/>
<path d="M0 0 C5.40312483 -0.32418749 8.28403706 0.46063534 13 3 C16.64078057 4.40689443 20.31674214 5.7088936 24 7 C24 7.66 24 8.32 24 9 C26.87456281 9.64783124 29.74961759 10.29332518 32.625 10.9375 C33.43324219 11.11990234 34.24148437 11.30230469 35.07421875 11.49023438 C39.36898181 12.45044563 43.64777849 13.33096919 48 14 C48 14.33 48 14.66 48 15 C42.42829906 15.17372787 37.52945671 14.69224893 32.125 13.25 C31.42810059 13.06953125 30.73120117 12.8890625 30.01318359 12.703125 C24.4752803 11.22463958 19.25629001 9.28186914 14 7 C11.41118577 6.00285498 8.82029885 5.01161178 6.2265625 4.02734375 C3.87471869 2.94219476 2.01183756 1.62141247 0 0 Z " fill="#EA9DA4" transform="translate(138,928)"/>
<path d="M0 0 C2 1 2 1 3 3.95703125 C5.74833887 14.55316587 8.42423055 24.97000559 8 36 C7.67 36 7.34 36 7 36 C6.67 33.69 6.34 31.38 6 29 C5.34 29 4.68 29 4 29 C3.63779734 27.20994059 3.28547531 25.41787943 2.9375 23.625 C2.74027344 22.62726563 2.54304687 21.62953125 2.33984375 20.6015625 C2 18 2 18 3 16 C2.34 16 1.68 16 1 16 C0.66666667 14.33333333 0.33333333 12.66666667 0 11 C-0.309375 9.700625 -0.309375 9.700625 -0.625 8.375 C-1 6 -1 6 0 3 C0 2.01 0 1.02 0 0 Z " fill="#B585BC" transform="translate(985,129)"/>
<path d="M0 0 C0 0.33 0 0.66 0 1 C-0.89924194 1.029729 -0.89924194 1.029729 -1.81665039 1.06005859 C-4.56566471 1.15605003 -7.31399493 1.26542505 -10.0625 1.375 C-11.47692383 1.42140625 -11.47692383 1.42140625 -12.91992188 1.46875 C-18.30646699 1.6939714 -22.86550053 2.39798254 -28 4 C-30.8125 3.5625 -30.8125 3.5625 -33 3 C-33.99 3.495 -33.99 3.495 -35 4 C-36.93375001 4.20565731 -38.87246428 4.36603946 -40.8125 4.5 C-47.09620592 4.93712737 -52.31929082 6.01504237 -58.1328125 8.37890625 C-60 9 -60 9 -63 9 C-63 8.34 -63 7.68 -63 7 C-56.16873394 4.45236612 -49.3822717 2.94070354 -42.1875 1.8125 C-41.07906738 1.6381543 -39.97063477 1.46380859 -38.82861328 1.28417969 C-25.91397228 -0.55896556 -13.01237857 -0.38280362 0 0 Z " fill="#D21420" transform="translate(232,1)"/>
<path d="M0 0 C20.35999988 -0.5451325 39.45960096 1.08685313 59 7 C58.67 7.66 58.34 8.32 58 9 C54.37 8.34 50.74 7.68 47 7 C47 6.34 47 5.68 47 5 C46.43152344 5.18433594 45.86304688 5.36867188 45.27734375 5.55859375 C42.67105169 6.06375842 41.11365112 5.73897508 38.5625 5.0625 C35.28419699 4.2564486 32.3988419 3.78071988 29 4 C29 3.34 29 2.68 29 2 C27.99646484 2.01740234 27.99646484 2.01740234 26.97265625 2.03515625 C17.94815531 2.11995022 8.99930454 1.59711025 0 1 C0 0.67 0 0.34 0 0 Z " fill="#7D136A" transform="translate(797,1)"/>
<path d="M0 0 C-1.65354997 3.58269161 -3.79898023 6.73181914 -6 10 C-7.01187895 11.65948148 -8.0126546 13.32580562 -9 15 C-10 16.66666667 -11 18.33333333 -12 20 C-12.495 20.928125 -12.99 21.85625 -13.5 22.8125 C-13.995 23.534375 -14.49 24.25625 -15 25 C-15.99 25 -16.98 25 -18 25 C-17.54019471 19.63204053 -14.57189314 15.74823256 -11.6875 11.375 C-11.20087891 10.611875 -10.71425781 9.84875 -10.21289062 9.0625 C-4.3063665 0 -4.3063665 0 0 0 Z " fill="#E76E74" transform="translate(68,79)"/>
<path d="M0 0 C0.33 0 0.66 0 1 0 C0.31171414 10.94137182 -2.77952111 20.63055538 -6.5 30.875 C-6.79664551 31.69605225 -7.09329102 32.51710449 -7.39892578 33.36303711 C-8.93742533 37.51153686 -10.53723265 41.2908321 -13 45 C-14.0326802 42.21176345 -14.04509293 41.1322726 -13.0625 38.25 C-12.711875 37.5075 -12.36125 36.765 -12 36 C-11.34 36 -10.68 36 -10 36 C-10.061875 35.195625 -10.12375 34.39125 -10.1875 33.5625 C-9.95207465 29.08941841 -8.87099083 25.07670021 -7 21 C-6.34 20.67 -5.68 20.34 -5 20 C-4.21791628 17.57996737 -3.54753374 15.21333017 -2.9375 12.75 C-2.76412109 12.08097656 -2.59074219 11.41195312 -2.41210938 10.72265625 C-1.50048338 7.1669656 -0.67814348 3.60744368 0 0 Z " fill="#CBACD2" transform="translate(990,794)"/>
<path d="M0 0 C0.66 0.33 1.32 0.66 2 1 C-14.45353026 8.02788981 -31.90957675 14.35941238 -50 14 C-50 13.67 -50 13.34 -50 13 C-49.0255896 12.83395264 -49.0255896 12.83395264 -48.03149414 12.66455078 C-45.04143086 12.15366967 -42.05196737 11.63935619 -39.0625 11.125 C-38.04091797 10.95097656 -37.01933594 10.77695312 -35.96679688 10.59765625 C-29.93361099 9.55678712 -23.9647504 8.38078685 -18 7 C-18 6.34 -18 5.68 -18 5 C-16.02 4.67 -14.04 4.34 -12 4 C-12 3.34 -12 2.68 -12 2 C-11.07767578 1.90912109 -11.07767578 1.90912109 -10.13671875 1.81640625 C-9.32847656 1.73261719 -8.52023437 1.64882813 -7.6875 1.5625 C-6.88699219 1.48128906 -6.08648438 1.40007813 -5.26171875 1.31640625 C-2.83912821 1.04734307 -2.83912821 1.04734307 0 0 Z " fill="#F1E5F0" transform="translate(881,930)"/>
<path d="M0 0 C1.28497537 3.85492611 0.4052209 5.40346836 -0.9375 9.1875 C-1.31777344 10.27417969 -1.69804688 11.36085938 -2.08984375 12.48046875 C-2.39019531 13.31191406 -2.69054688 14.14335938 -3 15 C-3.66 15 -4.32 15 -5 15 C-5.33 17.97 -5.66 20.94 -6 24 C-6.66 24 -7.32 24 -8 24 C-8.04898438 24.59167969 -8.09796875 25.18335938 -8.1484375 25.79296875 C-8.56456867 30.19104472 -9.04965595 33.96928897 -11 38 C-11.33 38 -11.66 38 -12 38 C-11.5986477 30.81397385 -10.17149986 24.61356566 -7.6875 17.875 C-7.39166016 17.03324219 -7.09582031 16.19148438 -6.79101562 15.32421875 C-4.87947929 9.99833997 -2.62253158 5.01349304 0 0 Z " fill="#DB1E27" transform="translate(47,111)"/>
<path d="M0 0 C4.60961551 0.58846155 9.08104637 1.43058843 13.61132812 2.4597168 C21.81113832 4.31439586 29.6935239 5.50464493 38.09375 5.82421875 C41 6 41 6 44 7 C44 7.66 44 8.32 44 9 C37.4 8.67 30.8 8.34 24 8 C24 7.34 24 6.68 24 6 C23.35675781 5.97421875 22.71351563 5.9484375 22.05078125 5.921875 C14.26851569 5.43340184 7.35946469 3.51555629 0 1 C0 0.67 0 0.34 0 0 Z " fill="#CE2739" transform="translate(162,936)"/>
<path d="M0 0 C13.8252889 4.84261481 25.96165769 18.73351355 36 29 C35.67 29.66 35.34 30.32 35 31 C30 26 30 26 27.67578125 23.65234375 C24.95863509 20.95899741 22.19035033 18.34043254 19.375 15.75 C17.96347656 14.44289063 17.96347656 14.44289063 16.5234375 13.109375 C14.11565423 10.83532083 14.11565423 10.83532083 11 10 C11 9.34 11 8.68 11 8 C10.443125 7.731875 9.88625 7.46375 9.3125 7.1875 C6.8027573 5.89871321 4.4130541 4.46053274 2 3 C1.34 2.67 0.68 2.34 0 2 C0 1.34 0 0.68 0 0 Z " fill="#71187C" transform="translate(910,34)"/>
<path d="M0 0 C0.66 0 1.32 0 2 0 C2 4.95 2 9.9 2 15 C2.66 15 3.32 15 4 15 C3.979375 16.11375 3.95875 17.2275 3.9375 18.375 C3.73619282 21.83215921 3.73619282 21.83215921 5 24 C5.22467831 25.53668865 5.40796805 27.07968054 5.5625 28.625 C5.68818359 29.85089844 5.68818359 29.85089844 5.81640625 31.1015625 C5.87699219 31.72804688 5.93757813 32.35453125 6 33 C5.01 33.495 5.01 33.495 4 34 C3.30778304 30.67146737 2.64820403 27.33737479 2 24 C1.71382812 22.55753906 1.71382812 22.55753906 1.421875 21.0859375 C0.11139942 13.99064829 -0.23002864 7.20756393 0 0 Z " fill="#DC323D" transform="translate(30,764)"/>
<path d="M0 0 C0.33 0.66 0.66 1.32 1 2 C0.27490234 3.78417969 0.27490234 3.78417969 -0.9140625 5.921875 C-1.34589844 6.70046875 -1.77773438 7.4790625 -2.22265625 8.28125 C-2.68542969 9.0959375 -3.14820313 9.910625 -3.625 10.75 C-4.06457031 11.54921875 -4.50414062 12.3484375 -4.95703125 13.171875 C-7.59719291 17.87926001 -10.40327322 21.9747823 -14 26 C-14.66 25.01 -15.32 24.02 -16 23 C-15.27683594 22.00419922 -15.27683594 22.00419922 -14.5390625 20.98828125 C-13.90742187 20.10527344 -13.27578125 19.22226562 -12.625 18.3125 C-11.99851562 17.44238281 -11.37203125 16.57226562 -10.7265625 15.67578125 C-9.10584157 13.16403048 -8.00141912 10.80700813 -7 8 C-6.34 8.33 -5.68 8.66 -5 9 C-3.35 6.03 -1.7 3.06 0 0 Z " fill="#BA93C6" transform="translate(974,842)"/>
<path d="M0 0 C0.99 0.33 1.98 0.66 3 1 C-9.58252427 13 -9.58252427 13 -18 13 C-17.67 12.01 -17.34 11.02 -17 10 C-14.67793475 9.29508733 -12.34406932 8.62787571 -10 8 C-9.67 7.34 -9.34 6.68 -9 6 C-7.34928604 4.97388051 -5.68029994 3.97691857 -4 3 C-3.29875 2.4225 -2.5975 1.845 -1.875 1.25 C-1.25625 0.8375 -0.6375 0.425 0 0 Z " fill="#9D61A8" transform="translate(906,914)"/>
<path d="M0 0 C0.33 0 0.66 0 1 0 C1.0270043 1.45823212 1.04639787 2.91660675 1.0625 4.375 C1.07410156 5.18710938 1.08570313 5.99921875 1.09765625 6.8359375 C1 9 1 9 0 11 C0 12.175625 0 13.35125 0 14.5625 C0 15.696875 0 16.83125 0 18 C-0.33 18.33 -0.66 18.66 -1 19 C-1 20.99612093 -0.99741664 22.99236617 -0.96875 24.98828125 C-1.00191572 27.12332452 -1.32452774 28.97358321 -2 31 C-2.66 31 -3.32 31 -4 31 C-2.71267252 2.71267252 -2.71267252 2.71267252 0 0 Z " fill="#DC2129" transform="translate(34,151)"/>
<path d="M0 0 C1.57261709 4.71785128 -0.72419618 9.00697019 -2.26171875 13.57617188 C-3.72081199 18.16707574 -4.14506018 21.19928186 -3 26 C-3.4375 28.875 -3.4375 28.875 -4 31 C-4.66 30.01 -5.32 29.02 -6 28 C-6.33 29.65 -6.66 31.3 -7 33 C-7.33 33 -7.66 33 -8 33 C-7.70053214 26.77106847 -6.61871975 20.84903349 -5.125 14.8125 C-4.88281738 13.81573242 -4.88281738 13.81573242 -4.63574219 12.79882812 C-3.48338726 8.29233722 -1.91527174 4.21907003 0 0 Z " fill="#FAECF0" transform="translate(40,124)"/>
<path d="M0 0 C5.50147896 0.05695113 11.12470437 2.43720437 15 6.3125 C10.58937864 7.3382259 8.07369424 7.34934712 4 5.3125 C4 4.6525 4 3.9925 4 3.3125 C2.68 3.6425 1.36 3.9725 0 4.3125 C0 3.6525 0 2.9925 0 2.3125 C-1.32 1.9825 -2.64 1.6525 -4 1.3125 C-3 0.3125 -3 0.3125 0 0 Z " fill="#B072AB" transform="translate(867,10.6875)"/>
<path d="M0 0 C0.94875 0.86625 1.8975 1.7325 2.875 2.625 C10.60184412 9.25249638 18.84765352 13.8056063 29 15 C29 15.33 29 15.66 29 16 C23.47322267 16.19392201 19.24385089 15.7479503 14 14 C14 13.34 14 12.68 14 12 C13.278125 11.731875 12.55625 11.46375 11.8125 11.1875 C6.59874835 8.98613819 3.25887146 6.70725878 0 2 C0 1.34 0 0.68 0 0 Z " fill="#BD112F" transform="translate(265,668)"/>
<path d="M0 0 C3.34500609 1.44824248 5.47904245 3.26688426 8.00390625 5.87890625 C9.11475586 7.01295898 9.11475586 7.01295898 10.24804688 8.16992188 C11.01181641 8.95947266 11.77558594 9.74902344 12.5625 10.5625 C14.07991759 12.13088039 15.60185568 13.69490345 17.12890625 15.25390625 C17.79994385 15.94814697 18.47098145 16.6423877 19.16235352 17.35766602 C21.00329001 19.22131356 21.00329001 19.22131356 24 20 C24 20.99 24 21.98 24 23 C20.3468423 21.46213169 18.016051 19.26051042 15.234375 16.46484375 C14.34492187 15.57345703 13.45546875 14.68207031 12.5390625 13.76367188 C11.15847656 12.3647168 11.15847656 12.3647168 9.75 10.9375 C8.8050908 9.99113361 7.85978238 9.04516564 6.9140625 8.09960938 C0 1.14019224 0 1.14019224 0 0 Z " fill="#8C1560" transform="translate(684,151)"/>
<path d="M0 0 C2.67389871 1.99049532 5.33861524 3.99281038 8 6 C8.9075 6.680625 9.815 7.36125 10.75 8.0625 C13.19038063 10.16393888 15.07110664 12.42814219 17 15 C13.25841124 13.63881269 10.15091649 11.94658003 6.875 9.6875 C6.02679688 9.11386719 5.17859375 8.54023437 4.3046875 7.94921875 C1.82826659 5.85475429 0.50280777 3.85337031 -1 1 C-0.67 0.67 -0.34 0.34 0 0 Z " fill="#E77F85" transform="translate(104,904)"/>
<path d="M0 0 C0 3 0 3 -1.31347656 4.66992188 C-2.21791504 5.5603418 -2.21791504 5.5603418 -3.140625 6.46875 C-4.12869141 7.44908203 -4.12869141 7.44908203 -5.13671875 8.44921875 C-5.83410156 9.12597656 -6.53148437 9.80273438 -7.25 10.5 C-7.93191406 11.17675781 -8.61382813 11.85351562 -9.31640625 12.55078125 C-12.41735363 15.60355858 -15.47098453 18.44229105 -19 21 C-19.66 20.67 -20.32 20.34 -21 20 C-19.625 18.5 -19.625 18.5 -18 17 C-17.34 17 -16.68 17 -16 17 C-16 16.34 -16 15.68 -16 15 C-14.64453125 13.66796875 -14.64453125 13.66796875 -12.8125 12.1875 C-9.69784884 9.60660962 -6.82451082 6.90084895 -4 4 C-2.66666667 2.66666667 -1.33333333 1.33333333 0 0 Z " fill="#661280" transform="translate(945,882)"/>
<path d="M0 0 C0.99 0.495 0.99 0.495 2 1 C2 2.32 2 3.64 2 5 C2.66 5 3.32 5 4 5 C7 8.46153846 7 8.46153846 7 11 C7.66 11 8.32 11 9 11 C9 11.66 9 12.32 9 13 C9.66 13.33 10.32 13.66 11 14 C11.99 15.485 11.99 15.485 13 17 C12.67 17.99 12.34 18.98 12 20 C0 5.26213592 0 5.26213592 0 0 Z " fill="#D8212B" transform="translate(59,855)"/>
<path d="M0 0 C0 3.35766876 -0.60789299 4.3191867 -2.3125 7.125 C-4.58607513 11.038111 -6.04272911 14.79368445 -7.2265625 19.15234375 C-8 21 -8 21 -11 23 C-11 21.68 -11 20.36 -11 19 C-10.34 19 -9.68 19 -9 19 C-9 16.69 -9 14.38 -9 12 C-8.01 11.67 -7.02 11.34 -6 11 C-5.37907282 9.18703385 -5.37907282 9.18703385 -5 7 C-3.75278368 3.25835104 -3.3906569 2.26043793 0 0 Z " fill="#C61F39" transform="translate(266,125)"/>
<path d="M0 0 C0 0.99 0 1.98 0 3 C-1.6796875 4.60546875 -1.6796875 4.60546875 -3.875 6.1875 C-4.59429687 6.71730469 -5.31359375 7.24710938 -6.0546875 7.79296875 C-8 9 -8 9 -10 9 C-10 9.66 -10 10.32 -10 11 C-11.32 11.33 -12.64 11.66 -14 12 C-14 12.66 -14 13.32 -14 14 C-15.65 14.66 -17.3 15.32 -19 16 C-13.97891115 9.07436021 -7.04629855 4.69753237 0 0 Z " fill="#D71A24" transform="translate(113,34)"/>
<path d="M0 0 C2.44877186 3.67315779 2.71614068 6.97488063 3.1875 11.25 C3.28224609 11.98863281 3.37699219 12.72726563 3.47460938 13.48828125 C4.02229779 18.22933972 3.87527428 22.30704001 3 27 C2.67 27 2.34 27 2 27 C1.93941406 26.18015625 1.87882813 25.3603125 1.81640625 24.515625 C1.73261719 23.43796875 1.64882813 22.3603125 1.5625 21.25 C1.48128906 20.18265625 1.40007813 19.1153125 1.31640625 18.015625 C1.09135601 15.14089977 1.09135601 15.14089977 0.46875 12.96875 C-0.15159818 10.36328762 -0.09433255 7.92393391 -0.0625 5.25 C-0.05347656 4.26515625 -0.04445313 3.2803125 -0.03515625 2.265625 C-0.02355469 1.51796875 -0.01195312 0.7703125 0 0 Z " fill="#6D1783" transform="translate(990,155)"/>
<path d="M0 0 C0.99 0.33 1.98 0.66 3 1 C1.02 1.99 -0.96 2.98 -3 4 C-2.67 4.66 -2.34 5.32 -2 6 C-6.62107093 7.61737483 -11.2460133 8.85248597 -16 10 C-13.43372387 7.00601118 -10.52386208 5.69416446 -7 4 C-5.76806248 3.2545601 -4.53890327 2.50451025 -3.3125 1.75 C-2.219375 1.1725 -1.12625 0.595 0 0 Z " fill="#EFAEB4" transform="translate(136,19)"/>
<path d="M0 0 C0.66 0.33 1.32 0.66 2 1 C-12.73786408 7 -12.73786408 7 -18 7 C-18 6.34 -18 5.68 -18 5 C-16.02 4.67 -14.04 4.34 -12 4 C-12 3.34 -12 2.68 -12 2 C-11.07767578 1.90912109 -11.07767578 1.90912109 -10.13671875 1.81640625 C-9.32847656 1.73261719 -8.52023437 1.64882813 -7.6875 1.5625 C-6.88699219 1.48128906 -6.08648438 1.40007813 -5.26171875 1.31640625 C-2.83912821 1.04734307 -2.83912821 1.04734307 0 0 Z " fill="#BD93C2" transform="translate(881,930)"/>
<path d="M0 0 C0.99 0.33 1.98 0.66 3 1 C3.33 2.98 3.66 4.96 4 7 C4.66 7 5.32 7 6 7 C6.33 9.31 6.66 11.62 7 14 C6.01 14 5.02 14 4 14 C3.32739649 12.23141309 2.66211605 10.46003984 2 8.6875 C1.62875 7.70136719 1.2575 6.71523437 0.875 5.69921875 C0 3 0 3 0 0 Z " fill="#813390" transform="translate(979,119)"/>
<path d="M0 0 C0.47050781 0.42152344 0.94101562 0.84304687 1.42578125 1.27734375 C2.35970703 2.09912109 2.35970703 2.09912109 3.3125 2.9375 C4.23482422 3.75541016 4.23482422 3.75541016 5.17578125 4.58984375 C7.05241958 6.20081559 7.05241958 6.20081559 10 7 C10 7.66 10 8.32 10 9 C10.66 9 11.32 9 12 9 C12.66 10.65 13.32 12.3 14 14 C8.621714 10.7730284 4.07748356 6.78121169 0 2 C0 1.34 0 0.68 0 0 Z " fill="#90226B" transform="translate(735,200)"/>
<path d="M0 0 C4.54109672 4.26587874 8.24735246 9.03612328 12 14 C11.67 14.66 11.34 15.32 11 16 C7.69369715 12.87241622 5.23155448 9.95593748 3 6 C2.443125 5.278125 1.88625 4.55625 1.3125 3.8125 C0 2 0 2 0 0 Z " fill="#701A7F" transform="translate(950,69)"/>
<path d="M0 0 C6.4084507 -0.49295775 6.4084507 -0.49295775 9.25 1.875 C9.8275 2.57625 10.405 3.2775 11 4 C11.99 4.66 12.98 5.32 14 6 C8.65155992 5.46515599 4.64203897 3.53309233 0 1 C0 0.67 0 0.34 0 0 Z " fill="#EDAAB1" transform="translate(138,928)"/>
<path d="M0 0 C0.33 0 0.66 0 1 0 C1 2.31 1 4.62 1 7 C1.66 7.33 2.32 7.66 3 8 C3.4140625 10.06640625 3.4140625 10.06640625 3.625 12.5625 C3.69976562 13.38878906 3.77453125 14.21507812 3.8515625 15.06640625 C3.92503906 16.02353516 3.92503906 16.02353516 4 17 C3.34 17.33 2.68 17.66 2 18 C0.59545452 11.88019467 -0.23268915 6.28260706 0 0 Z " fill="#D91B23" transform="translate(32,780)"/>
<path d="M0 0 C4.14298667 0.59834725 7.18194377 2.00664285 10.8125 4.0625 C11.78832031 4.61035156 12.76414062 5.15820312 13.76953125 5.72265625 C14.50558594 6.14417969 15.24164062 6.56570312 16 7 C15.01 7.495 15.01 7.495 14 8 C11.92803369 7.26821134 9.8891448 6.44100997 7.875 5.5625 C6.77929688 5.08941406 5.68359375 4.61632812 4.5546875 4.12890625 C3.71164062 3.75636719 2.86859375 3.38382813 2 3 C2 2.34 2 1.68 2 1 C1.34 0.67 0.68 0.34 0 0 Z " fill="#761374" transform="translate(879,17)"/>
<path d="M0 0 C0.99 0.33 1.98 0.66 3 1 C0.65408148 3.7710688 -1.14776201 4.52059284 -4.6875 5.1875 C-5.49574219 5.34605469 -6.30398438 5.50460937 -7.13671875 5.66796875 C-8.05904297 5.83232422 -8.05904297 5.83232422 -9 6 C-8.34 5.67 -7.68 5.34 -7 5 C-7 4.34 -7 3.68 -7 3 C-5.5459375 2.5359375 -5.5459375 2.5359375 -4.0625 2.0625 C-1.15934208 1.30476658 -1.15934208 1.30476658 0 0 Z " fill="#711C82" transform="translate(881,927)"/>
<path d="M0 0 C0.33 0.66 0.66 1.32 1 2 C-0.07050218 3.48847916 -1.15692244 4.9655195 -2.25 6.4375 C-3.15492188 7.67306641 -3.15492188 7.67306641 -4.078125 8.93359375 C-6.10483324 11.11271704 -7.0991395 11.64701919 -10 12 C-9.61328125 11.55269531 -9.2265625 11.10539063 -8.828125 10.64453125 C-5.81609925 7.1478974 -2.85678969 3.62592537 0 0 Z " fill="#7B0F69" transform="translate(749,664)"/>
<path d="M0 0 C1.98 1.32 3.96 2.64 6 4 C5.01 4.495 5.01 4.495 4 5 C3.01 4.67 2.02 4.34 1 4 C-1.56634861 3.77281504 -4.11678107 3.58391816 -6.6875 3.4375 C-7.38939453 3.39431641 -8.09128906 3.35113281 -8.81445312 3.30664062 C-10.54275206 3.2008264 -12.2713511 3.09993419 -14 3 C-14 2.67 -14 2.34 -14 2 C-9.38 2 -4.76 2 0 2 C0 1.34 0 0.68 0 0 Z " fill="#84095A" transform="translate(669,506)"/>
<path d="M0 0 C0.33 0.99 0.66 1.98 1 3 C-0.66831106 6.25320657 -2.75892504 9.11861791 -5 12 C-6.32 11.67 -7.64 11.34 -9 11 C-8.071875 10.29875 -7.14375 9.5975 -6.1875 8.875 C-3.09904705 6.32684378 -1.55573813 3.71648553 0 0 Z " fill="#89105F" transform="translate(681,461)"/>
<path d="M0 0 C0.33 0 0.66 0 1 0 C0.74213573 6.52396607 0.17832479 10.87818251 -4 16 C-5 14 -5 14 -4.00390625 10.7421875 C-3.53110016 9.4502948 -3.05028031 8.16131362 -2.5625 6.875 C-2.31951172 6.21628906 -2.07652344 5.55757812 -1.82617188 4.87890625 C-1.22421679 3.25008662 -0.61297588 1.62470425 0 0 Z " fill="#7B1067" transform="translate(755,648)"/>
<path d="M0 0 C0.99 0 1.98 0 3 0 C3 2.64 3 5.28 3 8 C1.02 8.99 1.02 8.99 -1 10 C-0.67 6.7 -0.34 3.4 0 0 Z " fill="#972974" transform="translate(681,590)"/>
<path d="M0 0 C1.32 0 2.64 0 4 0 C3.67 2.64 3.34 5.28 3 8 C2.34 7.01 1.68 6.02 1 5 C0.67 6.65 0.34 8.3 0 10 C-0.33 10 -0.66 10 -1 10 C-0.67 6.7 -0.34 3.4 0 0 Z " fill="#EA8D95" transform="translate(33,147)"/>
<path d="M0 0 C2.83374881 3.20336822 3.5205537 5.78087253 4 10 C3.01 9.67 2.02 9.34 1 9 C-0.25 5.5625 -0.25 5.5625 -1 2 C-0.67 1.34 -0.34 0.68 0 0 Z " fill="#D82631" transform="translate(40,815)"/>
<path d="M0 0 C3.057952 1.73559438 5.63379989 3.38472619 8 6 C7.67 6.99 7.34 7.98 7 9 C5.82737096 7.88121617 4.66204862 6.75476949 3.5 5.625 C2.8503125 4.99851562 2.200625 4.37203125 1.53125 3.7265625 C0 2 0 2 0 0 Z " fill="#D61822" transform="translate(74,877)"/>
<path d="M0 0 C-3.33333333 1.66666667 -6.66666667 3.33333333 -10 5 C-10.99 4.34 -11.98 3.68 -13 3 C-8.37802694 0.78145293 -5.23175837 -0.38281159 0 0 Z " fill="#D61B27" transform="translate(159,13)"/>
<path d="M0 0 C0.845625 0.309375 1.69125 0.61875 2.5625 0.9375 C6.0497854 2.01538821 9.38177535 2.56581304 13 3 C13 3.33 13 3.66 13 4 C7.47322267 4.19392201 3.24385089 3.7479503 -2 2 C-1.34 1.34 -0.68 0.68 0 0 Z " fill="#C42846" transform="translate(281,680)"/>
<path d="M0 0 C0.66 0.66 1.32 1.32 2 2 C-0.88035092 4.24027294 -3.84866512 6.16172132 -7 8 C-5.50902342 4.2047869 -3.24299151 2.38957269 0 0 Z " fill="#E97C83" transform="translate(77,65)"/>
<path d="M0 0 C0 0.99 0 1.98 0 3 C-1.98 3.33 -3.96 3.66 -6 4 C-6.66 3.01 -7.32 2.02 -8 1 C-5.10765685 0.17361624 -3.11257569 0 0 0 Z " fill="#E05661" transform="translate(169,8)"/>
<path d="M0 0 C0.33 0 0.66 0 1 0 C1 1.98 1 3.96 1 6 C0.34 6 -0.32 6 -1 6 C-1 7.65 -1 9.3 -1 11 C-1.66 10.67 -2.32 10.34 -3 10 C-2.67 7.69 -2.34 5.38 -2 3 C-1.34 3 -0.68 3 0 3 C0 2.01 0 1.02 0 0 Z " fill="#9B62AD" transform="translate(991,788)"/>
<path d="M0 0 C0.33 0.99 0.66 1.98 1 3 C-1.31 4.98 -3.62 6.96 -6 9 C-4.68775452 5.06326356 -3.08089673 2.77280706 0 0 Z " fill="#D71620" transform="translate(74,69)"/>
<path d="M0 0 C0.99 0.33 1.98 0.66 3 1 C2.34 2.32 1.68 3.64 1 5 C0.01 5 -0.98 5 -2 5 C-1.34 3.35 -0.68 1.7 0 0 Z " fill="#AE7FBC" transform="translate(921,903)"/>
<path d="M0 0 C1.485 0.99 1.485 0.99 3 2 C3.99 2 4.98 2 6 2 C6 3.65 6 5.3 6 7 C3.95880212 5.38405168 1.95927063 3.7143618 0 2 C0 1.34 0 0.68 0 0 Z " fill="#EEA1A7" transform="translate(68,872)"/>
</svg>
